<svg xmlns="http://www.w3.org/2000/svg" xmlns:xlink="http://www.w3.org/1999/xlink" width="604.172" height="330" viewBox="0 0 974 532">
  <defs>
    <style>
      .cls-1 {
        fill: #e3ffff;
        fill-rule: evenodd;
        filter: url(#filter);
      }
    </style>
    <filter id="filter" x="27" y="33" width="974" height="532" filterUnits="userSpaceOnUse">
      <feFlood result="flood" flood-color="#21536d"/>
      <feComposite result="composite" operator="in" in2="SourceGraphic"/>
      <feBlend result="blend" in2="SourceGraphic"/>
    </filter>
  </defs>
  <path id="Фигура_1" data-name="Фигура 1" class="cls-1" d="M944.478,39.057c0.247,5.126,1.221,7.876-3.028,9.085v2.019l8.074,1.01v4.038a10.7,10.7,0,0,0,4.038,1.01A7.811,7.811,0,0,1,956.59,54.2v5.047c1.149,1.15.4,0,1.009,2.019l-4.037,3.028V65.3h-5.047v1.01c-3.528,2.679-2.48,4.833-9.084,5.047-2.587-2.351-5.141.286-8.075,1.01v4.038h1.01v1.01h-1.01q-0.5,2.523-1.009,5.047c-2.764-.65-2.3-1.321-5.046-2.019v2.019c-3.406-.988-1.931-1.224-4.038-3.028v-1.01h-2.018a4.021,4.021,0,0,1-2.019,2.019l2.019,6.057,8.074-1.009c0.608,1.092,1.746,1.575,2.019,2.019v2.019h1.009V92.56h1.009v2.019h1.01v5.047c0.03,0.15,1.661.368,1.009,2.019h-1.009a10.193,10.193,0,0,1-7.065,7.067c-0.651,2.764-1.322,2.3-2.019,5.047l4.037-1.009a12.006,12.006,0,0,1,1.009-5.048c0.819,0.337,4.094,2.175,6.056,1.01V107.7c1.15-1.15.4,0,1.01-2.019l5.046,1.01v-1.01h3.028V107.7c2.1,1.1,1.788,1.626,5.047,2.019,1.251-1.993,2.325-2.461,5.047-3.028v2.019h5.046a13.461,13.461,0,0,0,3.028,4.038c-1.388,5.049-3.623,2.361-5.046,7.066l-7.066,2.019v1.009h1.01c1.15,1.15,0,.4,2.018,1.01,0.424,2.356,1.733,4.682,1.01,8.076,0,0-1.326.017-1.01,2.019h1.01v8.076l-5.047,1.009-1.009-2.019h-3.028l-4.038,8.076-2.018,1.01v6.056h-1.01v2.019H936.4q-0.5,1.515-1.009,3.029h-5.047c-0.248-.054-0.331-1.312-2.019-1.01v1.01l-6.055,1.009v2.019h-3.028c-1.773-3.347-2.078-4.409-2.019-10.094-2.029-.58-0.873.121-2.019-1.01-3.317.646-3.846,2.087-8.074,2.019v-1.009h-1.01q-1.514,2.017-3.028,4.037h-5.046q-0.505,1.01-1.01,2.019h-2.018c-1.151,4.523-3.2,3.615-7.066,5.048v3.028h-4.037c-1.388,2.556-3.21,3.853-4.037,7.067a5.482,5.482,0,0,1,2.018,2.019H880.89c-2.7,3.8-5.911,1.337-10.093,3.028v1.01h-2.019l-1.009,2.019c-2.441,1.049-4.929-1.074-6.056-1.01v1.01l-7.065,1.009-4.038-5.047c-3.711-2.066-3.286,2.588-5.046-3.029-1.15-1.15-.4,0-1.01-2.019l-6.056-1.009c-3.752.441-4.658,2.2-6.056-3.029h1.01v-3.028c-3.23-.833-2.929-1.19-3.028-5.048,3.133-1.843,2.078-2.826,4.037-5.047l3.028-2.019V152.12l2.019-1.01c1.369-1.708,1.719-3.2,2.018-6.057-1.339-.676-1.342-1.562-2.018-2.019h-2.019l-2.019-3.028h-2.018l-1.01-2.019c-2.956-1.7-1.259,1.539-4.037-2.019H827.4v-3.029c1.992-1.251,2.46-2.325,3.028-5.047l5.046-1.01v-1.009c1.339-1.107,1.836-2.8,3.028-4.038l3.028-2.019v-1.01c0.785-1.192-.1-0.106,1.01-1.009-0.691-3.441-2.249-4.656-3.028-8.076,2.774-1.6,1.813-2.494,6.056-3.028,1.15,1.149,0,.4,2.018,1.009v3.029h-1.009c-1.15,1.149,0,.4-2.019,1.009v2.019c3.246,0.777,2.175,1.522,6.056,2.019,3.162-4.5,5.294-.133,8.075-2.019,2.341-2.247,1.523-4.091,1.009-7.066l-4.037-1.01v-1.009c-2.38-.837-4.9.475-6.056,1.009v-1.009c-1.562-1.339-3.058-4.237-4.037-6.057a22.094,22.094,0,0,0,6.056-4.038l1.009-2.019,3.028-1.01-1.009-2.019,4.037-3.029q2.019-4.038,4.037-8.076h2.019V77.418h2.019v-1.01h2.018V75.4H870.8l2.019-3.028,3.028-1.01q0.5-1.009,1.009-2.019c3.528-2.205,3.091,2.045,6.056-2.019,1.149-1.15.4,0,1.009-2.019l6.056-2.019c0.364,0.162.444,1.688,2.019,2.019l2.018-3.029,5.047-1.009,3.028-4.038h2.019l1.009-2.019,7.065-1.01V53.19l9.084,3.028v1.009c0.31,0.08,5-.971,7.065-1.009V54.2l-9.083-2.019q-0.505-1.514-1.01-3.029h1.01v-1.01l4.037-1.009c0.294-.365-1.646-2.31-1.009-4.038h1.009l1.009-3.029c7.633-.4,10.358-4.93,16.149-7.066v1.01h1.01c0.924,1.681-.667,3.284-1.01,4.038h1.01v1.009h3.028ZM437.8,41.076q-0.505-3.028-1.009-6.057H437.8l1.009,2.019c3.3,1.878,3.308-1.835,6.056,2.019h1.009v1.01h-1.009v1.009H437.8Zm9.084,0h4.037c-0.12,2.163-1.028,3.435-1.009,4.038h1.009v2.019l-3.028,1.009V47.133h-3.028a1.659,1.659,0,0,1-2.019,1.009,2.788,2.788,0,0,0-2.018-2.019v1.01L437.8,48.142c-0.384-3.574-1.252-3.065-2.019-6.057l4.038,1.01a2.74,2.74,0,0,1,3.027-1.01l1.01,2.019c2.007,0.4,1.279-.519,2.018-1.009C447.02,41.945,446.273,43.091,446.88,41.076ZM471.1,44.1a29.609,29.609,0,0,0,1.009,7.066H471.1c-2.13-2.905-.932-2-4.038-1.01-1.36.434,0.4,1.229-1.009,1.01v-1.01a8.363,8.363,0,0,1-3.028-5.047A34.556,34.556,0,0,0,471.1,44.1Zm382.534,1.01c3.611-.063,5.768.129,8.075,1.009-0.278,1.82-1.009,2.019-1.009,2.019V53.19l-3.028,2.019v6.057h-1.01v1.009h-4.037V61.266H851.62c-0.192-4.824-2.991-11.237-1.01-14.133l3.028-1.01V45.114ZM466.057,54.2v2.019h-2.019V54.2l-3.028,1.01V53.19c-1.149,1.15-.4,0-1.009,2.019h-2.019q-1.008-3.028-2.018-6.057l3.028,1.009V46.123H460c1.124,1.916,6.094,5.934,8.075,7.066C466.926,54.339,468.072,53.592,466.057,54.2Zm-15.14-2.019v4.038h-3.028v-1.01c-1.149-1.15-.4,0-1.009-2.019Zm23.215,6.057h-4.038A9.835,9.835,0,0,1,471.1,54.2c2.028,0.579.873-.121,2.018,1.01h1.01v3.029Zm-5.047-1.01v2.019a9.279,9.279,0,0,1,4.037,1.01v1.01l9.084-2.019v4.038c-3.126,1.659-1.812,1.916-7.065,2.019-0.789-.944-2.754-2.75-4.037-3.029l-1.01,2.019h-5.046c-0.954-1.818-1.4-1.589-2.019-4.038C465.262,59.053,466.045,57.9,469.085,57.228Zm-17.159,5.047V59.247a16.6,16.6,0,0,1,10.094,1.01c-0.579,2.029.121,0.873-1.01,2.019v1.009h-4.037V62.275h-5.047ZM553.868,80.446c0.4,6.412,2.632,5.717,4.038,10.095H556.9q-1.008,3.533-2.018,7.066c-2.338.211-6.514,0.967-8.075,2.019v1.01c-3.11,2.6-1.011,3.231-6.056,4.038-1.15-1.15,0-.4-2.019-1.01q-0.5-2.523-1.009-5.047l6.056,1.01V96.6l-2.019-1.01c-1.181-3.714,2.633-4.038,3.028-5.047,0.67-1.71-.943-1.77-1.009-2.019-0.585-2.2.578-2.81,1.009-4.038l6.056-1.01C551.57,80.686,551.122,81.216,553.868,80.446ZM276.3,89.531V92.56l4.037-1.01v3.028h1.009V93.569h4.038v7.067c-2.467-.579-2.227-1.057-4.038-2.019v3.028h1.01c0.693,1.965-1.439,2.9-2.019,4.038h3.028c0.153,4.611.27,4.388,2.019,7.067H286.4v17.161h-1.009c-0.59,2.411,1.617,8.491,2.018,10.095q-0.5,5.046-1.009,10.095h-2.019l-1.009,3.028H282.36c-2.053,3.076-.868,3.89-6.056,4.038v1.009h-4.038v-1.009H267.22v-1.01c-4.087-1.63-6.985-1.492-8.075-6.056-2.577-2.635-.641-4.437-2.019-8.076h-1.009q-0.5-2.019-1.009-4.038H254.1V131.93h-1.009v-5.048c-0.153-1.669-1.009-2.019-1.009-2.019q0.5-4.542,1.009-9.085H252.08V117.8c-1.086.927-.261-0.206-1.01,1.009v1.01l-2.018,1.009v4.038h-1.01a9.973,9.973,0,0,0-4.037-4.038q0.506-1.514,1.01-3.028h1.009c0.391-2.226-2.967-5.72-4.037-7.066h-1.01v-2.019l-2.018-1.01v-2.019c1.111-.592,1.6-1.772,2.018-2.019H243v-1.009l9.084,1.009q2.018-4.038,4.037-8.076V90.541h1.009v-1.01h4.038c0.585-.3,1.561-3.269,3.028-3.029l1.009,2.019,5.047-2.019v1.01C272.892,89,271.994,89.2,276.3,89.531ZM556.9,99.626q-0.5,2.523-1.009,5.048H556.9v-1.01c1.15-1.15.4,0,1.01-2.019h3.028c1.658,3.127,1.916,1.813,2.018,7.067-2.636,2.68-1.417,6.4-1.009,10.094l-7.065,1.01c-0.891-1.434-1.389-2.337-3.028-3.029h-2.019l-2.019-3.028H546.8v-3.028h-1.009a8.554,8.554,0,0,1-2.019-4.038c3.2-2.19,1.762-4.8,6.056-6.057v-1.01H556.9ZM238.959,107.7q0.5,1.513,1.009,3.029h1.009q0.505,1.513,1.01,3.028l2.018,1.01q-0.5,3.532-1.009,7.066l3.028,1.009c1.192,0.952,1.72,3,3.028,4.038q-1.01,5.048-2.019,10.095l-3.028,1.01V139l-6.056,1.01q-1.01,3.027-2.018,6.057c-2.765.65-2.3,1.321-5.047,2.019q-0.5,2.017-1.009,4.038l2.018,1.009c1.12,2.986-.966,8.047-2.018,9.085v1.01l-7.066-1.01v1.01a18.568,18.568,0,0,0-3.028,4.038h-1.009v5.047h-1.009c-0.21,1.254,1.8,1.725,1.009,4.038h-1.009c-1.513,3.253-3.2,4.283-4.038,8.076-3.573.384-3.064,1.253-6.056,2.019-0.65-2.765-1.321-2.3-2.018-5.047h-2.019v-6.057c4.81-2.452,9.021-5.778,9.084-13.124h-1.009v2.019H210.7v3.029h-1.009c-1.486,1.849-1.219,2.289-4.037,3.028,0.1-3.8.911-4.633,2.018-7.066h-2.018c-2.07,3.052-1.068,1.888-4.038,1.009a9.833,9.833,0,0,1-1.009,4.038h-3.028a21.273,21.273,0,0,1,0,10.1h-1.009c-0.06-2.535-.058-3.608-1.009-5.047h-1.01c-2.225-3.648-1.019-5.834-6.056-7.067-1.268,1.927-1.023,1.675-4.037,2.019-1.15-1.149,0-.4-2.019-1.009q2.019-9.084,4.038-18.171l-5.047-1.009v-1.01h-1.009v1.01H176.38v-5.048l12.112,1.01v1.009H200.6c0.629-1.168,1.7-1.508,2.019-2.019,1.806-2.883,2.819-8.8,3.028-13.123h8.074v-5.048h1.01v-1.009h3.028v-3.029c1.064-.544,1.723-1.855,2.018-2.019h3.028q0.505-1.008,1.01-2.019h2.018v-1.009h1.01v1.009l5.046-1.009,5.047-8.076h2.019Zm320.965,25.237c0.311-7.8,3.859-9.621,4.038-18.17,2.488-1.453,2.813-3.168,6.056-4.038v1.009h1.009q-0.5,3.029-1.009,6.057h1.009a6.206,6.206,0,0,1,3.028-3.028v1.009c2.074,1.716.841,2.1,2.019,4.038l2.018,1.009v5.048c-1.884.991-4.162,3.336-6.056,4.038h-7.065v1.009h-2.019v1.01Zm160.483-13.123c2.308-.27,2.606-0.154,4.038-1.01V117.8h5.046l1.01-2.019,6.055-2.019v1.01c1.927,1.267,1.675,1.023,2.019,4.037-3.135,2.858-1.183,5.34-7.065,6.057v-1.009a1.459,1.459,0,0,0-2.019,1.009c-3.467.639-5.649-.6-8.074-1.009v-1.01h-1.01v-3.028ZM435.777,117.8v2.019c2.688,1.425,4.26,2.049,9.084,2.019v-1.01h5.047v-1.009h2.018v-1.01l6.056,1.01a19.34,19.34,0,0,1,1.01,7.066,10.071,10.071,0,0,0-2.019,2.019l-5.047,1.01v1.009l-31.289-1.009q-1.01,2.523-2.018,5.047l-10.094-2.019,1.01,3.029h-1.01v1.009h-4.037v-2.019h-1.009v5.048c-2.467-.579-2.227-1.057-4.038-2.019-0.954,3.64-2.046,3.484-5.046,5.047v1.01h-4.037v1.009c-1.15,1.15-.4,0-1.01,2.019H386.32v-1.009c-0.909-1.888-1.009,2.019-1.009,2.019h-3.028c-0.8,3.066-2.409,3.878-4.037,6.057h-1.01v3.028h-1.009v2.019h-1.009v3.028h-1.01c-1.512,4.832,2.023,7.6,0,13.124H372.19c-3.467-5.794-9.854-5.82-10.094-15.143,1.146-.852.147,0.128,1.01-1.009h3.028v-2.019h-1.01a26.9,26.9,0,0,0,1.01-4.038c-3.786-1.6-5.075-2.453-5.047-8.076,2.488-1.453,2.814-3.168,6.056-4.038v1.01c1.149,1.15.4,0,1.009,2.019,3.189-.771,3.685-2.248,7.066-3.029v-4.038h5.046l1.01-2.019a2.616,2.616,0,0,1,3.028,1.01c4.023,0.741,2.945-1.495,4.037-2.019h4.037v-1.01c-2.792-.446-4.74-1.05-6.056-3.028l11.1-1.01,1.009-2.019h3.028q0.506-1.01,1.009-2.019c1.107-.636,3.376.181,4.038-1.009v-5.048h2.018v2.019c1.364-.635,1.393-1.619,2.019-2.019,0.95-.007,3.562,1.893,6.056,1.01v-1.01h2.019V117.8h3.028v-1.01s8.146,0.8,9.084,1.01v1.009h1.009V117.8h4.037Zm281.6,4.038c-0.579,2.029.121,0.873-1.009,2.019l1.009,3.028h1.01q0.5,1.515,1.009,3.029h-1.009v1.009h-7.066c-1.15-1.149,0-.4-2.018-1.009V128.9H708.3v-4.038h-1.009c-1.15,1.15,0,.4-2.019,1.01v2.019c2.489,1.453,2.814,3.168,6.056,4.038v1.009h5.047c-1.934,6.907-2.652,1.508-7.065,4.038l-1.01,3.029c-0.851,1.078-3.008,1.776-4.037,3.028,1.149,1.15.4,0,1.009,2.019l-7.065,1.01v-1.01h-2.019v-1.009h-3.028v-1.01c-2.091-2.233-.872-4.887-2.018-8.076h-1.01v-2.019h-1.009V131.93h1.009v-5.048c5.769,0.043,7.46,2.032,12.112,3.029-0.6-2.755-3.329-5.9-2.018-7.067v-1.009l7.065,1.009,1.009-2.019ZM32.047,131.93h2.019v2.019A22.527,22.527,0,0,1,38.1,139c1.893-.83,2.64-1.5,5.047-2.019l1.009,15.143L38.1,153.129l-3.028-4.038H34.065v-2.019l-2.019-1.009v-2.019A40.159,40.159,0,0,0,27,137.987v-1.01h1.009v-1.009h3.028v1.009h1.009V131.93ZM827.4,135.968v2.019a14.284,14.284,0,0,1,8.074,4.038l1.01,2.019,3.028,1.009v4.038c-1.431.89-2.342,1.388-3.028,3.029v2.019l-4.038,3.028c-1.631,2.284-1.94,4.337-4.037,6.057q0.505,2.019,1.01,4.038h2.018q-0.5,2.523-1.009,5.047h1.009c1.156,1.957,2.7,2.4,4.037,4.038,3.246-.777,2.175-1.522,6.056-2.019,1.15,1.15,0,.4,2.019,1.01,0.524,4.022,1.275,3.507,3.028,6.057h1.009v4.038c-1.374,1.176-1.542,1.841-2.018,4.038h-4.038l-2.018,4.038c-3.225,2.6-5.661,1.024-7.066,6.056,1.735,1.138,1.368.639,2.019,3.029-3.023.784-2.655,0.622-3.028,4.038h1.009v2.019l3.028,2.019s-0.938,5.526-1.009,7.066c2.765,0.651,2.3,1.322,5.047,2.019V224.8H836.48v1.009c-1.4,1.356-2.772,5.356-3.028,8.076-3.548-.923-2.88-2.456-7.065-3.028v3.028c-2.757,1.6-2.469,2.768-7.066,3.029,0.483,4.318,2.354,4.227,4.038,7.066l-9.084,3.028c0.016,4.953-1.158,5.748-2.019,9.086,1.929,1.271,3.132,3.936,4.037,6.057v3.028l5.047,4.038q0.5,6.561,1.009,13.123h-2.018v1.01h-1.01v-1.01h-4.037q-1.01,2.019-2.019,4.038c-0.82.714-.605-0.75-2.018,1.01h-6.056l-1.01-2.019h-6.056c-0.85,2.253-1.038,5.489-1.009,9.085,1.855,1.981,1.015,6.853,0,9.086h-1.009v3.028H795.1v5.048c-0.007.021-.58,0.011-1.009,2.019,3.32,2.019,3.244,4.469,5.047,8.075h1.009v3.029h1.009l2.019,3.028h-4.037a19.325,19.325,0,0,1-2.019,7.067c-3.163,1.431-4.435,2.778-9.084,3.028a7.248,7.248,0,0,0,1.009,4.038h-1.009c-3.039,4.128-4.258,1.109-8.074,3.029l-1.01,2.019H776.93c-2.531,1.9-2.1,6.6-2.019,11.1-3.591,2.556-.7,2.6,0,7.066l-3.028,1.01c0.688,4.647.921,2.456,3.028,5.047h1.009v5.048c-1.994,1.139-2.359,1.43-3.028,4.038,4.375,0.65,6.589,1.238,7.066,6.057-3.2,3.064-1.533,8.695-1.01,13.123-8.333,2.854-8.713.637-12.112,9.085h-2.018l-1.01-2.019c-2.848-.973-5.672,2.41-7.065,3.029h-3.028v1.009l-4.037,1.01v1.009l-6.056-1.009v1.009l-5.047-1.009v1.009h-6.056v-1.009c-2.665-1.844-2.883-3.482-7.065-4.038v2.019c-2.01.06-6.784,1.079-7.065,1.009v-1.009H716.37l-1.009-2.019-4.038,1.009-1.009-2.019H708.3V405.5c-6.4-2.217-8.28,5.564-12.112,3.028-3.195-3.807,1.817-5.662-6.056-6.057q-1.513-6.561-3.028-13.123l-3.027-2.019v-2.019h-1.01q-0.5-3.029-1.009-6.057l-3.028-1.009v-1.01c-3.186.557-4.8,1.805-7.065,3.029-0.7-7.256-5.586-7.007-9.084-11.105H654.8q-0.5,2.524-1.009,5.048h-1.01c-1.464,2.1-1.741,2.389-2.018,6.057h-2.019l-2.019,3.028h-1.009v3.029h-1.009c-1.593,3.991,2.108,3.521-3.028,5.047v1.01h-1.01c-0.433-4.253-1.975-4.666-5.046-6.057-0.891,5.024-2.982,5.312-9.084,5.047V394.4h-1.009v1.009h-5.047c-0.367-3.138-3.344-6.771-2.019-10.1l2.019-1.009v-8.076l2.019-1.01v-4.038h1.009c1.261-3.528.14-3.438,0-7.066h-4.037c-0.3-4.3-.527-3.436-2.019-6.057h-1.009c-0.562-1.859,2.765-5.231,3.028-9.085h-5.047q0.5-4.544,1.009-9.086c-1.841-1.164-2.3-2.743-4.037-4.038v-1.009h-6.056v-1.01c3.992-2.121,3.741-2.8,3.028-7.066h-2.019v-2.019l-8.074,1.009-1.01-2.019h-5.046v-1.009h-1.01v-5.047c0.954-.811,4.392-6.325,4.038-8.076h-1.01v-2.019h-1.009v-6.057l-2.019-1.01q0.505-5.046,1.01-10.1h-4.038V288.4l3.028-1.009,2.019-3.029h1.009v-5.047h1.01q-0.505-5.552-1.01-11.1h-1.009v-3.029h-1.009v-4.038h-1.01v-3.028H590.2c-0.877-1.444-.658-1.75-1.009-4.038h7.065q0.505-2.019,1.009-4.038l7.066,1.009c-0.007-3.462-.284-6.855,1.009-9.085l2.019-1.01q0.5-2.523,1.009-5.047l2.019-1.009,1.009-2.019c3.7-2.725,4.525-.624,5.047-7.067-3-1.757-3.563-2.527-4.038-7.066v-3.029l-4.037-3.028c-3.414-5.153-3.095-12.53-3.028-21.2,0.811,0.321,3.17,2.067,5.047,1.009V191.49c1.149-1.151.4,0,1.009-2.019h2.019a29.6,29.6,0,0,0,1.009,7.066h2.019c0.565-3.166.983-4.23,4.037-5.047v-1.01H632.6v-1.009h3.028v1.009h1.009q-1.01,2.019-2.018,4.038h1.009v1.01c0.667,0.422,3.267.626,4.037,1.009v-1.009c1.149-1.151.4,0,1.009-2.019h2.019l2.019,3.028,9.084-3.028q0.5-1.515,1.009-3.029c2.085-2.413-.857-5.679-2.019-8.076,2.1-1.1,1.788-1.626,5.047-2.019v1.01c0.647,0.562,4.741,1.155,5.047,2.019V181.4l4.037,1.009V181.4c1.149-1.15.4,0,1.009-2.019,4.967,0.223,5.708,2.083,10.094,3.028q0.5,4.038,1.009,8.076c3.6,1.318,4.511.385,5.047,5.048-1.15,1.15-.4,0-1.01,2.018h-3.028v1.01c1.145,0.852.147-.128,1.01,1.009l3.028,1.01v-3.029h1.009v1.01h1.009q0.505,1.513,1.009,3.028a1.459,1.459,0,0,0-1.009,2.019H687.1l3.028,4.038h2.019v1.01h5.047a9.242,9.242,0,0,0,2.018,2.019V203.6c-1.414-1.536-2-8.007-2.018-11.1,5.408,0.538,5.714,3.361,11.1,4.038,2.766-5.793,2.24-7.315,11.1-7.066v1.009c0.668,0.423,3.267.626,4.037,1.01v-1.01c1.149-1.15.4,0,1.01-2.019H719.4v-2.019l9.084-3.028h1.009v-3.029c-2.861-.7-2.914-1.8-5.046-3.028q1.008-2.019,2.018-4.038h-2.018a6.782,6.782,0,0,1-3.028,3.028V171.3c2.2-1.212,3.325-2.225,4.037-5.048-1.927-1.268-1.674-1.023-2.019-4.038h4.038v1.01h1.009v-1.01c5.942-2.239,12.266-6.673,19.177-7.066v2.019H746.65c-2.54,2.8-4.754,1.456-6.056,6.057,2.954-.691,3.3-1.124,4.037-4.038l4.037-1.01V160.2H746.65v1.01l2.018,1.009c0.751,2.681-1.922,2.633-2.018,3.029l1.009,3.028c1.145-.852.147,0.128,1.009-1.009,3.01-2.933,1.215-6.862,1.01-12.114l3.028-2.019c2.192-2.257,6.536-2.115,11.1-2.019v1.01h1.01c-1.224,2.148-2.274,2.2-3.028,5.047l10.093-2.019v-1.009H773.9v-1.01c1.3-.59.548,0.484,1.009,1.01l3.028,1.009v2.019l5.046-1.01c4.964-9.086,11.443-21.042,25.234-21.2v1.01l5.046,1.009v1.01c3.024,2.985.386,4.261,6.056,5.047,1.409-1.67,3.49-2.5,6.056-3.028q-0.5-1.515-1.009-3.029h1.009C826.527,135.828,825.381,136.575,827.4,135.968ZM581.12,139v4.038l-5.046,2.019v1.01h4.037v1.009c0.89-.167,3.1-2.148,5.047-1.009v1.009h1.009V150.1c-1.994,1.139-2.36,1.43-3.028,4.038h4.037c1.02-4.376,3.651-4.261,9.084-4.038v-1.01h5.047v2.019a10.682,10.682,0,0,1,4.037-1.009c-0.579,2.028.121,0.873-1.009,2.019,0.875,3.016,2.357,3.921,4.037,6.056h1.009V160.2h1.01c0.872,2.4-1.1,3.867-1.01,5.048h1.01q0.5,2.019,1.009,4.038h-1.009c-0.269,3.234-2.144,7.659-4.038,9.085l-3.028,1.01q-1.008,2.019-2.018,4.038l-3.028,1.009c-2.164,3.471,2.612,3.365-3.028,5.048q-0.505,1.513-1.01,3.028h-1.009c-1.8,2.591,1.092,1.93-3.028,3.029-1.15,1.149,0,.4-2.019,1.009-1.349,5.106-3.739,2.786-5.046,5.047v5.048a9.514,9.514,0,0,0-2.019,2.019h2.019q2.018-3.533,4.037-7.067h6.056q0.505-1.008,1.009-2.019h2.019q0.505-1.008,1.009-2.019c3.24-1.88,2.542,1.793,4.038-3.028,1.145-.852.147,0.128,1.009-1.009h-4.037q0.5-2.019,1.009-4.038l6.056-1.01q-0.5,3.532-1.009,7.067h-1.01q0.505,3.533,1.01,7.066v5.047h1.009q0.5,2.019,1.009,4.038h1.01V213.7l4.037,3.029q-0.5,3.029-1.009,6.057H611.4c1.562,2.355,3.155,2.9,4.037,6.057l-9.084,7.066v4.038l-2.018,1.009c-1.273,2.241-1.04,5.616-1.01,9.086-2.2-.426-2.875-0.67-4.037-2.019-3.464.937-1.9,1.291-4.037,3.028v1.01h-7.066v1.009h-1.009V256.1c5.44,4.536,6.127,16.83,6.056,27.256-0.032.017-6.056,4.038-6.056,4.038v3.028c1.145,0.853.147-.128,1.009,1.01h3.028q-0.5,2.523-1.009,5.047H589.2c-1.219,4.107,1.644,4.181,2.018,5.048v5.047h1.01v2.019h1.009c1.92,6.21-7.631,9.348-2.019,15.142v1.01h4.038c1.311,0.537,4.32,4.075,7.065,3.028a19.9,19.9,0,0,1,2.019-2.019v2.019c-3.151,1.834-3.419,3.01-9.084,3.029v10.1l-2.019,1.009v5.048l3.028,1.009v3.029h-2.019q0.505,2.523,1.01,5.047l-4.038,3.029v3.028L589.2,363.1v1.01h-2.019v1.009l-2.018,1.01q0.5,2.523,1.009,5.047c-0.627,2.214-2.414,4.287-3.028,7.067,2.654,1.519,3.409,3.219,7.065,4.038-0.329,3.72-.825,4.249-4.037,5.047v4.038c2.8,1.207,3.605,1.208,4.037,5.048-2.533,1.43-2.892,2.069-3.028,6.056a44.727,44.727,0,0,1-8.074-3.028q-0.505-1.514-1.01-3.028h-1.009c-2.573-2.677-1.026-1.808-6.056-2.019-1.15,1.149,0,.4-2.019,1.009q0.505,4.038,1.01,8.076L566.99,405.5v1.009c-1.333.9-4.054,0.718-5.047,2.019q-0.5,2.019-1.009,4.038l-2.019,1.01c-0.584,1.317-.285,4.02,1.009,4.038v1.009h-2.018c-0.627-1.272-1.675-1.465-2.019-2.019-2.337-3.763.4-5.642-5.047-7.066l-1.009,3.028-3.028,1.01v1.009c-3.584,1.04-5.032-3.1-8.075-1.009-3.4,2.116-3.19,6.579-6.055,9.085,0.782,2.822,5.153,5.764,4.037,9.086H535.7c-0.771,1.5-.71,1.7-1.01,4.038h-5.046a13.461,13.461,0,0,1-3.028,4.038q0.5,2.017,1.009,4.037h1.009c0.518,2.927-2.545,3.03-3.028,4.038v6.057H524.6v1.01H521.57v1.009l-3.028,2.019v2.019h-1.009q0.5,1.515,1.009,3.029h2.019q0.5,2.019,1.009,4.038h2.019v1.009l-7.066,1.01v1.009h-7.065v1.01h-1.009v1.009h-1.01v2.019H506.43v2.019l-2.019,1.01-5.046,6.056-3.028,1.01v2.019c-0.747.927-2.07,0.793-3.028,2.019H483.216v-1.01H481.2q-0.505-1.008-1.009-2.019h-6.056q-0.505-2.018-1.01-4.037,5.046-3.029,10.094-6.057v-3.029l4.037-3.028V466.07h1.009q-2.018-6.561-4.037-13.123h-1.009v-2.019h-1.01c-0.144-1.42.677,0.379,1.01-1.01,0.682-2.851.227-3.536,2.018-5.047v-1.01h-1.009c-2.417-2.789-8.89-2.15-14.131-2.018-0.777-3.246-1.522-2.176-2.018-6.057,4.085-1.04,1.275-.447,3.028-3.029h1.009c0.925-1.329.8-1.787,1.009-4.038h-1.009v-3.028l-2.019-1.01v-2.019h-1.009q0.5-2.019,1.009-4.038h1.01v-6.057c1.336-.649,1.387-1.61,2.018-2.019,3.813-2.468,4.775.661,5.047-6.057l-3.028-1.009v-1.01h-2.019v-1.009l-2.018-1.009v-2.019h-1.01l2.019-7.067,6.056-1.009V388.34h1.009v-1.01h-1.009c-3.106-4.389-6.621-.591-7.065-8.076-3.082-.731-3.878-2.438-6.056-4.038v-1.009H462.02V373.2c-5.485-1.887-8.276,2.356-10.094-4.038,5.506-3.048,2.215-5.778,1.01-10.094l10.093-3.029c1.1-2.1,1.626-1.787,2.019-5.047-1.368-.682-1.317-1.54-2.019-2.019-3.953-2.7-5.029-1.086-5.047-8.076,3.125-1.725,9.919-6.674,11.1-10.1q-0.5-4.038-1.009-8.076l5.046-4.038q0.505-5.048,1.01-10.1c-2.555-1.035-4.344-2.338-7.066-3.028l1.01-3.029h1.009v-2.019h1.009v-7.066c-3.6-1.318-4.511-.385-5.046-5.048,6.944-4.242-.571-3.108,1.009-8.076l2.019-1.009v-3.028c-2.536-1.378-3.639-2.356-4.038-6.057,3.016-2.039,1.366-3.827,1.01-8.076h3.028c0.606-1.123,1.746-1.571,2.018-2.019v-2.019h1.01v-4.038l2.018-1.01V246c-1.722-1.093-2.143-2.15-3.028-4.038-5.775,2.142-4.448-.7-9.084-2.019-0.249-4.856-.709-4.878,0-9.085,3.054-.64,2.378-1.73,3.028-2.019h6.056v-1.01c1.15-1.15.4,0,1.01-2.019h1.009q-0.5-4.542-1.009-9.085l-3.028-2.019V210.67h4.037c1.1-2.1,1.626-1.788,2.019-5.048-3.337-1.452-4.667-2.543-5.047-7.066h3.028v1.009c5.045,4.614,2.106,10.4,11.1,12.114q-0.505-4.542-1.01-9.085c-3.12-1.339-3.887-1.515-4.037-6.057,2.718-2.33,2.258-4.905,1.009-8.076q0.505-1.514,1.01-3.028l4.037-1.01v-1.009l9.084,3.028,15.14-1.009V182.4l-3.028-2.019q-0.505-1.513-1.01-3.028c-2.858-1.766-2.57,1.557-5.046-2.019,4.695-.038,5.6-1.229,9.084-2.019V171.3h2.018l2.019-4.038c1.31,0.707,2.4,2.975,5.047,2.019l1.009-2.019h2.019v-1.01l4.037-1.009v-1.01c4.171-1.557,11.263.641,14.13-2.019l-3.027-1.009q0.5-1.514,1.009-3.029h9.084v-1.009h2.018v-1.01l3.028,1.01v1.009h-1.009c-1.176,1.375-1.841,1.543-4.037,2.019v2.019c5.041-.4,7.391-2.453,12.112-3.028a4.015,4.015,0,0,0,2.018,2.019c-1.15-2.53-2.754-3.836-4.037-6.057h2.019v-1.009l6.056,1.009v-1.009h1.009c1.558-2.835-1.753-5.16-1.009-7.067h1.009c0.878-3.705,6.85-9.627,11.1-10.095v1.01Zm-419.88,1.01,14.131,2.019V152.12l-2.019,1.009v2.019l-2.018,1.009v2.019l-2.019,1.01c-1.405,1.7-1.658,3.217-2.019,6.057,2.346-.359,4.183-1.944,6.056,0q0.505,1.514,1.01,3.028h2.018v1.01l7.066-1.01,1.009,2.019c2.866,0.672,2.241-1.713,3.028-2.019h4.037c1.254,4.927,3.788,4.3,4.038,11.105H189.5l-5.047,6.057h-2.019v1.009c-1.542,1.294-5.864,6.082-9.084,5.048v-1.01h-2.018c-2.258-1.636-2-9.134-3.028-12.114a10.7,10.7,0,0,0-4.038-1.009v-5.048c-1.149-.568-1.64-1.8-2.018-2.019h-2.019v-1.009c-0.912-.256-2.822,1.98-5.047,1.009v-1.009a10.88,10.88,0,0,0-5.046-2.019v1.009h-1.01v-2.019h-4.037c0.165-5.231,1.776-13.114-1.009-16.151v7.066c0.213,1.412,1.061-.417,1.009,1.009h-1.009q-0.505,4.038-1.009,8.076h-3.028c-1.1,2.1-1.626,1.788-2.019,5.048h1.009v3.028c-2.488,1.453-2.814,3.168-6.056,4.038-0.943,3.674-3.934,5.468-6.056,8.076h-1.009q-0.5,2.019-1.009,4.038H123.9l-2.018,3.029c-2.029-.58-0.874.121-2.019-1.01l-4.037-1.009c-0.089-5.135-1.229-5.186-3.028-8.076h-1.01q0.505-3.028,1.01-6.057h-1.01q-0.5-3.029-1.009-6.057l6.056-3.029v-2.019h1.009q0.506-1.514,1.01-3.028L123.9,160.2q1.01-2.017,2.019-4.038h5.047q1.513-2.018,3.028-4.037c2.281-1.63,4.346-1.934,6.056-4.038l10.093,2.019q0.5-2.019,1.009-4.038h3.028v2.019c1.818,0.953,1.589,1.4,4.037,2.019v1.009h3.028v4.038h3.028c-0.765-3.66-1.935-5-2.018-10.095a9.832,9.832,0,0,0,4.037-1.009c-1.15-1.15,0-.4-2.019-1.01v-1.009H161.24v-2.019Zm783.238,3.028h4.037v1.01l5.047-1.01c-0.135,3.045-1.347,12.34,0,16.152h1.009v2.019h1.009v11.1l5.047,7.067h-1.009v1.009c-2.977,1.593-6.094-1.52-8.075-1.009v1.009h-2.019v1.01c-2.8,1.652-1.895-.849-3.028,3.028-2.27,1.934-.883,2.154-2.018,5.048h-1.01V192.5h-1.009q1.514,5.048,3.028,10.095c-4.736-.542-4.894-3.149-8.075-5.048v7.067c1.412,1.207,2.228,3.271,3.028,5.047h-5.046v1.01c-1.149,1.15-.4,0-1.01,2.019h-2.018c0.175,8.464,4.966,8.219,7.065,13.123v4.038h1.009c2.147,5.567,1.122,11.337,8.075,12.114v-1.01h1.009a10.7,10.7,0,0,1-1.009-4.037l6.056-1.01q0.5,2.019,1.009,4.038h1.01v3.028H957.6c1.381,1.807,2.712,2.461,4.037,4.038,1.818-.953,1.589-1.4,4.038-2.019,1.139,2,1.43,2.36,4.037,3.029q0.5,2.019,1.009,4.038h-1.009v1.009h-4.037c-0.029,5.1,1.194,6.454,2.018,10.095l3.028,2.019v1.01h2.019V267.2c4.634,2.011,6.235-1.606,7.065,5.048-1.352,1.056-.99,1.9-2.019,3.028l-4.037,3.029v9.085c4.241,2.539,4.518,6.662,11.1,7.066v2.019l-5.047,1.01q-0.5,3.029-1.009,6.057l2.018,1.009c0.847,2.144-.819,2.838-1.009,4.038l4.037,3.029c1.4,2.169,1.087,5.348,2.019,8.075h1.009q-0.5,3.029-1.009,6.057,0.505,5.048,1.009,10.1a8.31,8.31,0,0,1-4.037-2.019v-1.009H979.8l-7.065-8.076H970.72v-1.01H968.7v-1.009h-3.028l-2.019-3.029h-1.009q-0.505-1.008-1.01-2.018h-2.018l-4.038-5.048h-2.018l-3.028-4.038h-2.019l-1.009-2.019h-2.019l-2.019-3.028H941.45l-1.01-2.019-5.046-4.038v-2.019l-2.019-1.01-1.009-3.028h-1.01V289.41l-2.018-1.01q-0.505-2.017-1.01-4.038h-1.009c-0.841-2.429,1.063-3.831,1.009-5.047h-1.009q-0.5-3.533-1.009-7.066c-1.949-.5-4.242-1.58-5.047-3.029h1.01q0.5-1.01,1.009-2.019H925.3c0.4-.544-1.877-2.2-1.01-4.038l3.028-2.019q-0.5-3.029-1.009-6.057V246H925.3v-2.019h-1.01q-0.5-3.029-1.009-6.057h1.009v-1.009h-1.009V234.9h-1.009c-0.434-1.718.953-1.765,1.009-2.019q-0.505-5.047-1.009-10.095h1.009c0.523-1.329-.429-0.412-1.009-1.01-1.15-1.149,0-.4-2.019-1.009,0.022-6.041,1.912-8.834,3.028-13.124l-3.028-2.019c-1.981-3.078,1.8-2.566-3.028-4.038v-2.019a15.843,15.843,0,0,1-7.065-9.085,8.363,8.363,0,0,0,3.028-5.047h-1.01c-2.145,3.014-1.722.417-4.037,2.019l-1.009,3.028h-1.01c-1,1.444-.875,2.52-1.009,5.048,3.063,1.793,2.922,4.534,5.047,6.056,1.607,1.152,2.323,0,4.037,2.019h-1.009l-2.019,3.029c-1.145-.852-0.147.128-1.009-1.01-1.735-1.137-1.368-.638-2.019-3.028h-4.037q0.5-2.523,1.009-5.048c-4.024-.467-3.588-1.7-8.075-2.018V192.5c-4.016-2.721-2.631-6.442-9.084-8.076q-0.5-3.029-1.009-6.057c-2.148-1.224-2.2-2.274-5.047-3.028,1.017-5.051,3.835-5.412,8.075-7.067v-3.028h4.037c0.954-1.818,1.4-1.59,2.019-4.038l8.075-2.019,2.018-3.029,10.094-1.009q-0.505,3.029-1.01,6.057c1.15,1.15.4,0,1.01,2.019,2.147,1.224,2.2,2.274,5.046,3.028l2.019-3.028,9.084-1.01s0.1,1.305,2.018,1.01v-1.01H936.4q0.505-1.513,1.009-3.028h1.01v-2.019h1.009V151.11l2.019-1.009A21.032,21.032,0,0,0,944.478,143.034Zm-705.519,3.029h3.028v3.028h-1.01c-1.15,1.15,0,.4-2.018,1.01v-4.038Zm476.4,6.057h-2.019v1.009l-3.028-1.009v-5.048a10.682,10.682,0,0,1,4.037-1.009A15.84,15.84,0,0,1,715.361,152.12ZM308.6,175.338c3.083,0.611,3.459,1.96,7.065,2.019v-1.01h1.01q1.01,1.515,2.018,3.029l11.1-1.01,1.009,2.019,4.038,1.01v3.028h2.018c0.808-3.539,1.789-3.94,6.056-4.038v1.01c2.19,1.589,1.964-1.058,4.037,2.019,1.146,0.852.147-.128,1.01,1.009-4.315.077-5.187,0.527-6.056,4.038h-5.047v2.019l4.038,1.01q0.5,1.008,1.009,2.019l9.084-1.01,3.028,4.038h2.018v1.009h7.066v-1.009l3.028,1.009a14.965,14.965,0,0,1-1.01,6.057h2.019v1.01h5.047c2.791-4.812,3.127-3.79,3.028-12.114-1.5-1.6-2.006-6.852-2.019-10.095a15.821,15.821,0,0,1,6.056-1.009c0.089,4.334.08,9.235-1.009,12.114h4.037l1.009,2.019h1.01v2.018l2.018,1.01c3.2,3.373,6.85,5.791,7.065,12.114l-3.027,1.009c-1.15,1.15,0,.4-2.019,1.01,0.641,5.218,2.281,2.822,3.028,8.076-1.145.852-.147-0.128-1.009,1.009-2.925-1.207-9.879-1.143-12.112,1.01-1.15,1.15-.4,0-1.01,2.019H372.19v1.009c-2.3,1.06-5.864,3.379-10.094,2.019v-1.009l-5.046-1.01-1.01-2.019h-2.018L352,220.765h-2.019l-3.028-4.038h-2.018l-2.019-3.029H340.9l-2.019-3.028h-2.019l-3.028-4.038h-1.009q-0.506-1.01-1.009-2.019H329.8q-0.5-1.513-1.009-3.029h-1.01a7.761,7.761,0,0,1-2.018-4.038c-3.246-.777-2.175-1.522-6.056-2.018-0.86,1.076-3.6,3.678-6.056,3.028v-1.01H311.63v-1.009l-10.093-1.009v-2.019c-3.075-.606-2.413-1.75-3.028-2.019-4.652-2.039-6.24,3.239-8.075-3.029-1.765-1.786-4.7-12.631-5.046-16.152h2.018c3.608-4.249,4.162-1.384,4.038-10.095,4.249-.3,9.376-3.3,11.1-6.057h1.009v-7.066h1.01v-1.009h1.009c0.748,7.977,5.463,6.7,6.056,14.132h-1.009q-0.505,3.029-1.01,6.057a10.68,10.68,0,0,1-4.037,1.01v-1.01h-2.019v-1.009c-1.329-.94-1.793-0.766-4.037-1.01a7.8,7.8,0,0,1-3.028,2.019c0.828,4.424.462,5.5,0,10.1,2.575,1.4,3.133,2.606,7.065,3.029C305.345,178.7,307.583,179.072,308.6,175.338ZM718.389,160.2h-3.028q-0.505-3.027-1.01-6.056c2.691-1.791,2.323-4.028,6.056-5.048v-1.009c2.076-1.171,8.834,2.5,9.084,3.028v3.029l-3.028,1.009v1.009h-2.018v1.01H719.4v1.009C718.249,159.327,719,158.18,718.389,160.2Zm-461.263,3.029c1.473-.174,7.793-1.078,11.1,0v1.009h3.028v1.01c2.805,0.894,5.866-1.528,7.065-1.01v1.01c3.592,3,2.272,5.554,2.019,11.1,3.482-.938,1.884-1.311,4.037-3.028q2.523,9.084,5.047,18.171l3.028,1.009v1.01h7.065v1.009h1.009c-3.222,3.778-7.7,4.251-8.074,11.1h1.009q-0.5,3.028-1.009,6.057h1.009v4.038h-4.037c-0.73-2.788-.282-2.258-3.028-3.028v-1.01h-6.056q-1.01-3.027-2.019-6.057l-3.028-1.009-1.009-2.019-9.084-3.029v5.048h1.009c0.61,1.114,1.807,3.713,1.01,6.057h-1.01c-1.862,4.179-1.752,3.4-1.009,8.076l-5.047,1.009q-0.5,1.515-1.009,3.029l-3.028,2.019v4.038h3.028l1.009,2.019c2.189,0.562,4.786-2.587,8.075-3.029a7.56,7.56,0,0,0,2.019,3.029c-0.579,2.028.121,0.873-1.01,2.019-2.5,2.858-7.234,3.558-11.1,5.047q0.5,2.523,1.009,5.047h-1.009c-1.137,1.736-.639,1.368-3.028,2.019-1.947-2.376-4.284-2.063-7.066-1.009-0.272-4.54-1.538-6.634-6.055-7.066v-3.029h-1.01c-1.15-1.149,0-.4-2.018-1.009q0.5-2.524,1.009-5.048a10.7,10.7,0,0,0-4.037-1.009c-0.6.888-.92,2.765-3.028,2.019v-1.01h-1.01v-5.047h-1.009v-1.01a34.578,34.578,0,0,1-8.075-1.009q-1.513-4.038-3.028-8.076l-6.056-1.01q-0.5-2.523-1.009-5.047c-2.769-.646-3.724-1.92-6.056-3.029-0.37-3.906-1.558-4.182-2.019-8.075,2.291-2.073.707-2.31,2.019-5.048h1.009v-2.019h1.01c2.367-2.764.259-.324,3.028-2.019v-1.009h2.018v-1.01l2.019-1.009V181.4l3.028-2.019v-2.019h1.009v-9.086h1.01v-2.019H221.8l2.019-3.028c1.872,0.386,4.032,2.056,5.046,2.019,0.836-.031-0.223-1.7,2.019-2.019v1.009c2.208,1.277,3.419,3.114,6.056,4.038v-1.009a13.9,13.9,0,0,0,3.028-4.038c-3.793-2.426-1.361-8.01,0-11.1,1.312,0.423,1.754,1.523,4.037,1.009,0.138-.031.391-1.753,2.019-1.009v1.009h1.009c1.968,3.577-1.787,8.051-2.018,10.095l3.027,2.019v5.047h1.01v1.01a10.7,10.7,0,0,0,4.037,1.009C254.551,169.493,256.339,166.847,257.126,163.224Zm105.98-10.095v5.047c-1.145.853-.147-0.128-1.01,1.01h-3.028q0.505-2.523,1.01-5.047h1.009C362.237,152.989,361.091,153.736,363.106,153.129Zm-29.271,8.076a34.922,34.922,0,0,1,1.01,7.066l-3.028,1.01v1.009c-1.652.849-7.855-2.567-8.075-3.028v-4.038c2.847-1.561,3.427-2.8,8.075-3.029C332.967,161.345,331.82,160.6,333.835,161.205ZM167.3,178.366q0.506,5.047,1.01,10.095h1.009v2.019h1.009c0.6,3.086-2.927,2.039-2.018,5.048h1.009c1.489,2.642,1.687,1.75,2.019,6.056-3.114-.4-3.164-0.694-5.047-2.019v-1.009l-6.056-1.01v-1.009c-3.386-3.1-.385-4.482-7.065-5.047-3.844,4.5-10.507-1.069-14.131-3.029L135,187.452v-1.01l-2.019-1.009v-2.019H131.97V181.4c2.427-1.282,7.132-4.511,8.075-7.067,0.879-2.384-.889-3.813-1.01-5.047,0.235-.415,1.45-0.8,2.019-2.019l5.047,1.009a1.536,1.536,0,0,1,2.018-1.009q0.505,1.01,1.009,2.019h4.038l1.009,2.019c4.216,2.088,5.042-2.213,8.075,2.019h1.009c0.44,0.859-2.134,2.059-1.009,4.038h1.009v1.009H167.3ZM445.87,170.29v2.019h-1.009a26.938,26.938,0,0,1,1.009,4.038l-7.065-1.009q0.505-2.524,1.01-5.048a10.7,10.7,0,0,1,4.037-1.009C445,170.43,443.855,169.683,445.87,170.29Zm1.01,11.105,1.009,3.028H446.88q-0.505,2.019-1.01,4.038h-1.009v3.029l-2.019,1.009c-2.65,2.9-6.379,5.432-7.065,10.095,1.6,1.367,1.753,2.19,2.019,5.047-2.51,2.2-6.7,9.691-8.075,13.124q-0.5,3.027-1.009,6.057l-2.019,1.009v2.019h-1.009c-0.927,1.38-.707,1.775-1.009,4.038,1.775,1.51,1.915,2.729,2.018,6.057l-5.046,4.038c-1.058,1.926.645,3.864-1.01,5.047h-3.028v1.01h-2.018l-4.038,5.047c-1.509.941-3.132-.416-4.037,1.01v2.019h-5.047v-3.029c-3.658-.738-4.446-2.509-7.065-4.038v2.019H394.4c-0.228,1.41.378-.271,1.009,1.01l4.037,7.066h4.038v1.01c1.9,1.38,2.33,2.333,5.046,3.028,0.954-1.818,1.4-1.589,2.019-4.038l9.084-1.009q2.019-3.029,4.037-6.057c1.253-.89,4.1-0.732,5.047-2.019q1.514-6.057,3.028-12.114c2.676-1.007,7.009-1.051,11.1-1.01q0.505,5.048,1.01,10.095h-1.01v2.019l-2.018,1.01c-1.676,2.891-.492,5.153,0,8.076,1.113,0.235,5.407,1.977,7.065,1.009v-1.009c-4.309-.747-5.126-1.819-5.047-7.067,5.2-2.281,5.287-4.621,5.047-12.114l-8.074-7.066-5.047,1.01c-1.224-2.148-2.274-2.2-3.028-5.048,2.985-2.707.366-3.739,2.019-7.066l2.018-1.01q0.505-1.514,1.01-3.028l5.046-4.038q0.505-4.542,1.009-9.086h-1.009q-0.5-2.523-1.009-5.047h1.009c1.686-2.2,2.006-.542,3.028-4.038,4.44,0.068,6.4-.406,8.075-3.028h1.009q0.5-3.534,1.009-7.067h3.028q-1.008,5.047-2.018,10.095l-4.038,3.028v5.048c-0.023.071-.587-0.1-1.009,2.019l8.075,6.057v3.028H460v1.01h3.028c-0.845-7.985-7.431-7.67-8.075-16.152,1.818-.954,1.59-1.4,4.038-2.019l4.037,5.047,3.028-1.009v-1.01l-3.028-1.009c-0.384-3.574-1.252-3.065-2.019-6.057,3.1-.632,3.5-1.611,7.066-2.019-0.059,3.817-.519,8.7,1.009,11.1h1.009c1.432,1.842,2.274,2.395,3.028,5.048l-6.056,1.009c-0.579,2.029.121,0.874-1.009,2.019,0.694,3.16,1.734,4.32,3.028,7.067h1.009v8.076h-5.046v1.009c-5.561,1.151-6.323,3.188-6.056,10.095H460v3.028a8.737,8.737,0,0,1,4.037,2.019v1.01h2.019v1.009l4.037-1.009q0.505,5.048,1.01,10.095l-2.019,1.009q0.5,1.515,1.009,3.029h-1.009c-1.332,2.024-3.258,2.513-6.056,3.028q0.5,4.038,1.009,8.076h-1.009q-0.5,1.515-1.009,3.029h1.009v2.019l3.028,2.019a2.493,2.493,0,0,1-1.009,3.028c-0.7,3.069,1.392,5.772,1.009,7.066l-2.019,1.01v5.047c2.741,1.175,4.219,1.8,5.047,5.048h-1.009v4.038h-1.01c-0.9,1.525-.888,2.459-1.009,5.047,6.029,1.26,6.37,3.7,6.056,11.1-1.8,1.025-6.218,4.459-6.056,7.066h1.009v7.066h-1.009v2.019l-3.028,1.01-1.009,2.019H460l-2.019,3.028h-1.009v7.067L464.038,352l-1.009,2.019-10.093,3.029a10.553,10.553,0,0,1-2.019,2.019c-0.949-4.113-2.96-4.206-8.075-4.038a12.339,12.339,0,0,1-6.055,4.038v-2.019a12.8,12.8,0,0,0-5.047-1.01v-2.019c-1.695-.245-6.994-1.008-8.075-2.019-1.149-1.15-.4,0-1.009-2.019-2.227-.366-1.862-0.959-2.019-1.009h-5.046v-1.01h-2.019v-1.009a27.456,27.456,0,0,0-8.075-3.029q-1.008,1.515-2.018,3.029h-1.01v2.019H401.46v5.047h-1.009v2.019h-1.01q-0.5,1.514-1.009,3.029h-7.065v1.009l-2.019,1.009V363.1l-3.028,1.01-3.028,4.038c-1.263.817-8.474,2.917-11.1,2.019v-1.01h-2.019V368.15h-7.065l-3.028-4.038c-2.609-1.582-1.919,1.1-4.038-2.019,3.525-2.064,2.41-1.415,2.019-5.047h-4.037l-5.047,6.056h-1.009v4.038h-1.01c-0.9,1.541-.851,2.456-1.009,5.048h3.028V373.2h1.009c0.541,0.871.48,4.03,1.01,5.048h-1.01v1.009l-6.056,1.01c-1.844,1.082-3.142,4.884-4.037,7.066h-3.028v5.048h-3.028V394.4H329.8v-2.019c-2.655-1.52-3.409-3.22-7.065-4.038v-5.048h-1.01c-1.2-4.111-.768-1.066-3.028-3.028v-1.01h-1.009l-2.019-6.057h-2.018v-1.009H311.63l-1.009-2.019-3.028-1.01V363.1l-2.019-1.009v-2.019c1.818-.953,1.589-1.4,4.037-2.019a29.649,29.649,0,0,1,1.01-7.066c1.143-.6,1.576-1.755,2.018-2.019h2.019v-1.01c3.9-1.469,6.041,1.444,8.075,0,2.28-1.444,3.414-3.994,4.037-7.066h1.009c-0.054-1.709-2.944-3.839-3.028-4.038q0.506-4.542,1.01-9.086l-3.028-2.019v-1.009h-2.019v-1.01c-1.489-1.376-1.362-.5-2.019-3.028,2.15-1.278,5.031-3.858,4.038-8.076h-1.01v-6.057h1.01v-2.019h1.009q0.5-3.533,1.009-7.066c-2.4-2.084-2.4-5.12-4.037-8.076h-1.009v-2.019l-4.038-3.029q-0.5-3.533-1.009-7.066c4-2.573,6.063-8.6,7.065-14.133l4.038-1.009v-2.019h1.009v-1.01l5.047-1.009v-1.01h1.009v-6.057h1.009V250.04c1.765-.744,3.873-1.638,5.047-3.029,2.756,1.6,2.468,2.768,7.065,3.029v-1.01h2.019l1.009-2.019h2.019V246h9.084l4.037-5.048h12.112v-1.009h2.019v-1.01h2.018q0.505-1.008,1.01-2.018H384.3v-1.01c1.864-1.472,2.282-1.231,3.028-4.038h1.009q-0.505-2.523-1.009-5.047h1.009V224.8l2.019-1.01c1.731-2,1.928-3.158,2.018-7.066a6.789,6.789,0,0,1-3.028-3.029c1.893-.83,2.64-1.5,5.047-2.019,0.916,3.879,3.964,5.356,5.046,8.076V224.8h1.01c0.72,2.275.223,4.024,1.009,6.057,1.145-.853.147,0.128,1.009-1.01,2.326-1.2,4.725-2.786,6.056-5.047-2.2-1.46-1.087-1.1-2.018-4.038-0.145-.456-1.387-0.176-1.01-2.019h1.01v-2.019h1.009q-0.5-2.019-1.009-4.038c-3.023-.784-2.655-0.622-3.028-4.038,2.1-1.1,1.787-1.626,5.046-2.019,0.556-3.072,1.859-5.134,3.028-8.076h1.01q-0.505-2.523-1.01-5.047h1.01a4.53,4.53,0,0,1,2.018-2.019c2.383-2.219,5.409-.715,8.075-2.019l1.009-2.019h2.019l1.009-2.019h1.01v-2.019h1.009V181.4l3.028-2.019c1.992-2.8,1.16-3.988,5.047-5.048,2.037,3.482,3.033,2.05,6.055,4.038v1.01A8.01,8.01,0,0,0,446.88,181.4Zm440.066,4.038c5.865,1.389,7.053,5.935,9.084,11.1,5.147,0.258,3.527,1.406,8.075,2.019q-0.505,2.523-1.01,5.047h4.038a22.1,22.1,0,0,0,4.037,5.048c0.045,7.323.97,12.717,0,18.171-1.145-.853-0.147.128-1.009-1.01a7.819,7.819,0,0,1-2.019-3.028c-1.149,1.15-.4,0-1.009,2.019-3.166-.566-4.229-0.984-5.047-4.038h-1.009v-4.038h-1.01v-1.01c-1.145.852-.146-0.128-1.009,1.01h-1.009q-0.505,1.513-1.01,3.028c-1.851,1.113-3.871-.656-5.046,1.01v3.028a42.752,42.752,0,0,1-5.047,6.057q0.505,7.067,1.009,14.133l2.019,1.009q-0.5,6.561-1.009,13.124l2.018,1.009q-0.5,1.515-1.009,3.029h1.009q0.506,1.514,1.01,3.028h3.028c0.745-3.247,1.37-3.676,5.046-4.038q0.505,2.524,1.01,5.048h-1.01c-1.977,2.524-2.828.894-4.037,5.047H893v1.01h-1.009q-0.506,2.523-1.01,5.047l-3.028,2.019c-2.476,3.679.07,5.31-6.056,6.057,0.371-3.907,1.559-4.183,2.019-8.076h-1.009v1.01h-4.037v5.047a12.807,12.807,0,0,1-5.047,1.009c-2.422-4.287-3.82-2.04-8.075-1.009v6.057l2.019,1.009v1.01H866.76c-2.481,3.58-2.125.26-5.047,2.019l-1.009,3.028-4.038,2.019c-0.8-4.641-2.383-6.13-8.074-6.057v-1.009c-1.764-.819-3.238.586-4.038,1.009v1.01h-3.028a10.706,10.706,0,0,1-1.009-4.038c1.928-1.64,2.02-3.377,2.019-7.067-1.975-1.748-.864-2.392-2.019-4.037l-3.028-2.019v-1.01h-3.028v-1.009l-3.028-1.01v1.01H827.4c-0.914.44,0.049,1.286-3.028,2.019a17.639,17.639,0,0,0-5.047-11.1l-2.018-1.009v-4.038h-1.01q-0.5-2.019-1.009-4.038h-1.009q0.5-2.019,1.009-4.038h1.009q-0.5-2.019-1.009-4.038l4.037-1.01v1.01h1.01V246h4.037v-1.01h1.009a10.7,10.7,0,0,1-1.009-4.038c-2.415-.612-1.876-0.32-3.028-2.019h2.019c1.149-1.149,0-.4,2.018-1.009,0.651-2.765,1.321-2.3,2.019-5.047,3.548,0.923,2.88,2.455,7.065,3.028l2.019-9.085h1.009v-1.01h3.028v-7.066c-2.764-.651-2.3-1.322-5.047-2.019q0.505-3.532,1.01-7.067l-3.028-2.019c-1.328-1.742.757-.614-1.01-2.019v-1.009h1.01c1.15-1.15,0-.4,2.018-1.01q-0.5-3.027-1.009-6.057l7.065-4.037V191.49l5.047-1.01v-1.009h1.009v-3.029h1.01c0.932-1.493.895-2.48,1.009-5.047,3.826,1.161,1.7,1.117,4.037,3.028v1.01h6.056v-1.01c2.211-1.236,5.1,1.078,6.056,1.01v-1.01h3.028l1.01-2.019h2.018V181.4h5.047v-1.01l5.046-1.009,1.01-2.019c1.3-.594.5,0.51,1.009,1.009h1.009V182.4C885.368,183.318,886.213,182.355,886.946,185.433Zm-692.4-5.048V182.4a52.132,52.132,0,0,0,9.084-1.009c1.107,0.724,4.268,6.045,3.028,9.085l-2.019,1.01c-1.146,2.365-1.091,8.713,0,11.1,2.105,4.613,7.529,3.929,9.084,11.1h5.047c2.133,6.194,2.388,9.254,11.1,9.086q0.5,2.523,1.009,5.047c2.1,1.1,1.787,1.626,5.047,2.019a4.015,4.015,0,0,1,2.018-2.019v3.029H236.94l1.009,3.028c3.23,0.833,2.929,1.19,3.028,5.047l-3.028,1.01v1.009h-6.056v1.01h-1.009v6.057h-1.009v1.009c-2.677-1.006-7.009-1.051-11.1-1.009-1.394-2.5-3.764-3.274-5.047-5.048l-1.009-3.028-3.028-2.019v-2.019l-2.019-1.009v-2.019H206.66l-2.019-3.029h-2.018l-1.01-2.019H189.5c0.1-6.3-1.09-9.68-2.019-14.133-2.471.564-2.231,1.053-4.037,2.019v-1.009c-1.735-1.138-1.368-.639-2.019-3.029L178.4,210.67c-0.02-5.218-.394-4-2.019-7.067l-6.056,1.01c0.8-3.26,1.874-3.482,2.019-8.076a6.782,6.782,0,0,1-3.028-3.028h2.019V192.5h6.056c0.551-.239.106-1.326,3.028-2.019v-2.019c4.472-1.179,3.582-3.8,8.074-5.047V181.4Zm260.406,0,3.028,1.01v2.019l-2.018,1.009v1.01h-1.01v-1.01h-1.009C453.042,182.582,454.639,181.3,454.954,180.385Zm151.4,0,6.056,1.01q-0.5,2.523-1.009,5.047h-5.047a10.7,10.7,0,0,1-1.009-4.038C606.493,181.254,605.746,182.4,606.353,180.385ZM131.97,184.423c0.681,2.509.49,1.667,2.019,3.029v1.009h2.018v1.01h3.028l1.01,2.019h3.028l2.018,3.028c4.976,2.271,8.3-2.838,11.1-1.009,1.374,1.176,1.542,1.841,2.018,4.037,4.8,0.831,9.973,3.47,11.1,8.076h7.065v4.038c-1.145.853-.146-0.128-1.009,1.01h-3.028c-1.375,4.856-1.15,1.015-4.037,3.028v1.01H167.3v2.019h-1.009v2.019l-2.019,1.009a1.48,1.48,0,0,0,1.01,2.019c0.624,3.82-2.371,5.375-5.047,6.057V224.8h-1.009c-3.066-3.246-3.558-1.588-7.066-1.01l-3.028-4.038c-1.543-.942-3.086.4-4.037-1.009v-3.029h-1.009v-1.009l-5.047,2.019v-1.01c-4.934-1.267-3.54-3.856-5.046-8.076-2.237-.119-6.875-0.871-8.075-2.019-3.076-2.568-4.427-7.1-6.056-11.1C127.288,193.519,125.464,186.247,131.97,184.423Zm474.383,3.029c2.511,1.845,1.3.77,1.01,4.038h-1.01v-4.038Zm-131.212,1.009a14.984,14.984,0,0,1-1.009,6.057l-3.028-1.009v-4.038c1.145-.853.146,0.128,1.009-1.01h3.028Zm-341.152,21.2c0.212,4.847,1.7,5.258,2.018,10.095-3.175,1.891-2.864,3.734-8.074,4.038v-1.009c-0.617-.274-2.975,1.765-5.047,1.009l-1.009-2.019a25.464,25.464,0,0,1-4.038,1.01v-4.038l-4.037-1.01-1.009,2.019H99.672q0.5-6.561,1.01-13.123h1.009c0.4-2.069,3.827-8.336,5.047-9.086h3.028v-1.009c2.768-2.125,3.148-3.817,8.074-4.038,1.15,1.149,0,.4,2.019,1.01l-1.009,3.028h1.009v2.019h1.009q0.505,2.523,1.01,5.047l2.018,1.01c1.814,2.569-1.111,1.932,3.028,3.028v1.01h5.047C132.063,208.68,131.782,209.28,133.989,209.66Zm190.762-11.1c0.88,3.461,2.088,2.6,3.028,6.057,3.65,1.016,5.489,3.89,8.075,6.057v1.009h2.019q1.008,1.515,2.018,3.029h2.019l2.018,3.028h2.019l2.019,3.029h2.018L352,223.793h2.019l3.028,4.038,13.121,1.01,1.009-2.019h3.028v-1.01h1.01s0.508,1.787,2.018,1.01v-1.01c1.15-1.15.4,0,1.01-2.019l10.093-2.019v2.019l-2.019,1.01v5.047h1.01q-0.505,1.514-1.01,3.029c-1.245.643-1.449,1.656-2.018,2.019h-2.019v1.009h-2.019l-1.009,2.019h-2.019v1.009H365.124v1.01h-2.018l-4.038,5.047h-9.084V246h-2.018l-1.01,2.019h-2.018v1.009c-3.783-1-3.108-2.686-8.075-3.028-1.164,1.841-2.742,2.3-4.037,4.038h-1.009V256.1h-1.01v1.009h-3.028l-1.009,2.019h-2.019v1.01a8.034,8.034,0,0,1-4.037,2.019,26.216,26.216,0,0,1-8.075,15.142l-1.009,2.019h-7.065c-1.835-2.175-4.657-2.364-7.066-4.038l-3.027-4.038-3.028,1.01v2.019l-10.094-1.01v-1.009c-2.608-1.83-3.575-4.061-7.065-5.048q0.5-2.019,1.009-4.038a4.023,4.023,0,0,1-2.018-2.019l-5.047,1.01v-1.01c-0.8-.442-3.865-2.438-5.047-2.019v1.01h-1.009v4.038c1.149,1.15.4,0,1.009,2.019h-7.065l-1.009-2.019-4.038,1.009c-1.866-.549-3.142-4.591-7.065-3.028L243,264.173l-3.028,1.009q-0.505-5.046-1.009-10.1c1.318-.645,1.4-1.624,2.018-2.019,4.046-2.6,5.787-.067,6.056-7.066,4.7-.866,5.993-0.286,11.1,0,1.223-2.148,2.273-2.2,3.028-5.048a4.013,4.013,0,0,1-2.019-2.019c6.315-.927,12.172-2.283,12.112-10.094-3.126-1.659-1.812-1.917-7.065-2.019-1.985,2.966-3.267,1.473-7.066,1.009,0.789-3.188,2.7-4.278,4.038-7.066l6.056-1.01q-0.506-3.029-1.01-6.057h1.01v-2.019c0.64-1.2,2.877-.43,2.018-4.038h-1.009v-3.028H267.22q-0.506-1.513-1.01-3.029h3.028l1.01,2.019h3.028l1.009,2.019,3.028,1.01,2.019,6.057,8.074,1.009,1.01,3.029c1.895,1.936,3.691.357,6.056,0q0.5-2.019,1.009-4.038h-1.009v-5.048h1.009v-1.009h-1.009q-0.505-2.019-1.01-4.038l7.065-6.057c1.983,0.34,2.019,1.009,2.019,1.009h7.065v1.01h2.019v1.009h6.056l1.009-2.019ZM187.483,215.717v11.1h1.009c0.824,1.467.7,1.719,1.01,4.038h-1.01v1.009h-4.037v1.01h-2.019l-1.009,2.019q-3.532,1.008-7.065,2.019v-1.01h-2.019l-1.009-2.019c-2.9-1.076-5.337,1.742-9.084,2.019a19.34,19.34,0,0,1-1.01-7.066c7.6-3.421,2.715-2.443,5.047-9.086H167.3q0.506-2.523,1.01-5.047c5.588-.725,3.382-2.859,11.1-3.029l3.028,5.048Zm-97.9-3.028c2.717,2.025,1.192,5.85,3.028,7.066h2.019v1.01c3.017,1.772,8.244-.748,11.1,0v1.009h2.019c0.749,1.572,3.437,4.84,2.019,8.076l-2.019,1.01v2.019h-1.009c-0.332,1.021,2.181,2.01,1.009,4.038h-1.009c-2.023,2.346-2.606.62-5.047,2.018l-3.028,4.038H88.569v-1.009h1.009v-3.029h1.009l1.009-3.028H90.588V234.9c-0.928-.776-4.362-0.847-5.047-2.019v-5.048H84.532c-3.294-3.363-4.54,1.541-5.047-6.057C83.081,219.806,87.536,216.257,89.578,212.689Zm54.5,4.038v3.028h1.009v1.01h3.028l2.019,3.028h2.018v1.01a1.521,1.521,0,0,0,2.019-1.01c1.98-.36,1.345.682,2.019,1.01h2.018c1.247,0.973.884,2.864,1.01,5.047-5.018,2.723-6.278,5.915-6.056,14.133,2.29,1.3,2.661,1.643,3.028,5.047a7.816,7.816,0,0,0-2.019,3.029c-4.869-.874-11.847-1.021-18.168-1.01V250.04c2.481-2.155,2.267-5.733,1.01-9.086h-1.01q0.505-2.523,1.01-5.047h1.009q-0.506-3.029-1.009-6.057c-3.482-.938-1.885-1.311-4.038-3.028,1.027-4.011,3.949-4.962,5.047-9.086Zm799.386,0h4.038v1.009h1.009L946.5,228.841c-1.145-.853-0.146.128-1.009-1.01h-1.009v-4.038h-1.01v-2.019h-1.009Q942.963,219.251,943.468,216.727ZM133.989,230.86h2.018v6.057l-3.028,1.009v1.009h-5.046v1.01h-2.019l-1.009-2.019h-7.066v1.009l-4.037,1.01v-1.01h-2.019v-1.009l-3.028-1.009v-5.048h1.01c0.439-1.069,1.875-6.116,1.009-8.076a11.56,11.56,0,0,1-2.019-2.019c4.873-.569,2.968-1.9,7.066-3.028v1.009h1.009v4.038h1.009v1.01c3.833-1.439,9.65.115,14.131,1.009C132.8,227.706,133.465,228.453,133.989,230.86Zm90.839,28.265a23.165,23.165,0,0,1-8.075-1.009v-1.01c-1.979.177-4.165,3.71-6.056,3.029v-1.01c-3.958-1.1-3.336-2.931-6.056-5.047v-1.01h-2.018c-1.3,2.291-1.643,2.662-5.047,3.029v-1.01h-3.028v-1.009h-1.009q-0.505-1.515-1.009-3.029h-4.038V249.03l2.019-1.009v-4.038h-3.028q-0.506-2.019-1.009-4.038l-10.094-1.01c0.852-1.145-.128-0.146,1.01-1.009,1.574-1.835,1.988-.875,4.037-2.019V234.9h2.019l1.009-2.019H189.5q1.008-2.019,2.018-4.038H200.6l6.056,5.047v2.019l2.019,1.01v1.009l3.028,2.019q0.5,2.019,1.009,4.038h1.009l4.038,5.047h10.093c0.852,1.146-.128.147,1.009,1.01C227.058,253.247,225.724,254.394,224.828,259.125Zm-64.6-23.218,6.056,1.01v3.028h-1.009c-0.8,1.837-1.269.786,0,2.019l7.065,6.057v4.038l2.019,1.009v2.019c0.635,0.977,3.173,1.272,3.028,3.029h-1.01c-3.536,3.512-7.464.111-12.112,2.019v1.009c-1.556.864-2.441,0.867-5.046,1.01l-1.01-3.029H157.2v-2.019h-1.009v-2.019l-2.019-1.009c0.058-2.133,3.276-4.478,4.037-6.057q-0.5-1.515-1.009-3.029h-2.019a24.693,24.693,0,0,1,0-11.1l4.038-2.019v2.019C160.371,235.038,159.624,233.892,160.231,235.907Zm8.075-1.009,3.028,1.009v1.01h2.018q0.505,1.008,1.01,2.018h2.018q0.506,1.01,1.01,2.019h2.018v1.01l6.056-1.01v3.029h1.01v1.009H189.5v2.019l-2.019,1.01v4.038h4.037c-1.061,4.1-.444,1.257-3.028,3.028v1.01l-3.028,1.009c-3.751-6.122-4.479.312-8.074-2.019-5.243-3.555-3.581-11.13-11.1-13.123C166.919,238.86,167.9,238.469,168.306,234.9Zm-53.495,6.056c0.029,4.766,1.242,6.406,2.019,10.095h2.019V256.1h-1.01c-1.829,2.615-4.051,3.573-5.046,7.066h-7.066v-1.009h-1.009c-0.022-7.41-2.782-11.31-4.037-17.162H98.662v-2.019h2.019l2.018-3.028h3.028v-1.01l4.038-1.009v1.009C112.529,239.586,112.062,240.257,114.811,240.954Zm5.047,17.162c0.049-8.463-3.517-9.741-4.037-17.162,2.546-1.351,3.537-2.008,8.074-2.019,2.972,3.253,7.346.346,12.112,2.019q0.505,3.029,1.01,6.057h-1.01q-0.5,2.524-1.009,5.048l-2.019,1.009v2.019c-2.514,4.27-4.313,4.173-11.1,4.038C120.727,257.976,121.873,258.723,119.858,258.116ZM237.949,267.2h3.028v-1.009l3.028-1.01c1.133-.664.415-2.521,3.028-2.019v1.01h2.019l1.009,2.019h5.047l1.009,2.019,5.047-1.01c1.16,4.436,4.338,4.874,5.046,10.095l-2.018,1.01v1.009l-6.056,1.009c-0.579,2.029.121,0.874-1.01,2.019,0.651,2.765,1.321,2.3,2.019,5.048a13.458,13.458,0,0,0-5.047,5.047c-1.145-.852-0.146.128-1.009-1.009-1.091-.82-1.307-2.574-2.019-3.029h-3.028v-1.009h-2.018l-2.019-3.029c-4.461,2.024-2.631,1.722-5.046,5.048h-1.01l-3.028,4.038c-2.1-1.1-1.787-1.626-5.046-2.019a27.937,27.937,0,0,0-3.028,8.076h-4.038c-0.483,1.343-.472-0.313-1.009,1.009v4.038h-1.009v-1.009h-1.01v-7.067h1.01q-0.505-5.552-1.01-11.1l-8.074-7.066h-7.066q-0.5-2.524-1.009-5.048c3.126-1.658,1.812-1.916,7.065-2.019v1.01l6.056-1.01V270.23h1.01V267.2a17.077,17.077,0,0,1-6.056-6.057c3.245-.777,2.175-1.522,6.056-2.019v1.01l6.056,1.009v-1.009c6.185-1.994.9-1.835,3.028-6.057l3.028-2.019V250.04a17.352,17.352,0,0,0,2.018-2.019h1.01v-6.057h1.009v1.009c1.6,0.753,5.323-1.518,6.056-2.019v-1.009h2.019v-1.01h3.028c0.852,1.146-.128.147,1.009,1.01q0.5,2.523,1.009,5.047h-1.009v4.038c-1.3.646-1.415,1.632-2.019,2.019-3.877,2.484-6.356.664-7.065,7.067C239.839,260.606,238.285,262.8,237.949,267.2Zm752.958-27.256L1001,240.954c-0.94,3.62-2.634,3.187-7.065,3.029-1.15-1.15,0-.4-2.019-1.01ZM101.69,271.239V269.22a9.53,9.53,0,0,1-2.019-2.019H96.644v-1.009l-4.037-1.01L91.6,262.154c-1.551-1.984-5.213-3.4-8.075-4.038L81.5,244.992a4.013,4.013,0,0,0,2.019-2.019c1.679,0.244,2.019,1.01,2.019,1.01,6.5,1.924,10.546-2.477,14.131,3.028h1.01q0.5,3.029,1.009,6.057H102.7v7.067q3.029,5.046,6.056,10.1h-1.009v1.009C104.477,270.065,105.2,270.607,101.69,271.239Zm52.485-17.161c1.4,6.46,4.845,5.926,5.047,15.142-5.349,3.334-2.384,6.887-12.112,7.067-2.348-3.868-2.228-2.692-6.056-2.019v-1.01c-2.563-1.6-3.449-3.266-7.065-4.038v-5.047c-2.426-1.06-3.242-1.13-4.038-4.038,3.108-2.1,2.962-5.869,7.066-7.067v-1.009h3.028a2.745,2.745,0,0,0,3.028,1.009v-1.009h8.074q0.506,1.01,1.009,2.019h2.019ZM216.753,267.2c-0.938,3.483-1.311,1.885-3.028,4.038-4.686-1.21-3.5-2.014-9.084-1.009q-0.5,1.513-1.009,3.028h-2.019L199.6,270.23l-7.065,2.019c-0.4,2.208-.974,1.91-1.01,2.019v5.047h-1.009c-3.017,3.457-4.5.3-5.047,7.066-3.267.333-2.965,0.917-5.046,2.019a9.856,9.856,0,0,0-1.01-4.038l-5.046,1.01v-1.01h-1.01v1.01h-2.018c-0.323.185-.987,1.459-2.019,2.019v-2.019c-1.914-2.179-.613-7.41-2.019-10.1l-2.018-1.009v-2.019h-1.01c-2.222-2.7-3.707-3.212-4.037-8.076h1.009v-1.01h3.028l1.01-2.019h9.084v-1.009l4.037-1.01,2.019-3.028,5.046,1.009v1.01h3.028l1.01-2.019,12.111,1.009c0.16-.08,1.483-3.759,2.019-3.028v1.009h1.009l1.01,3.029,2.018,1.009v1.01l3.028,1.009C213.09,264.127,211.888,265.89,216.753,267.2ZM90.588,262.154l1.009,4.038c5.784,0.979,9.956,3.138,10.093,10.095h-1.009q-0.505,3.027-1.01,6.056H98.662v2.019l-2.019,1.01c-1.8,1.939-2.765,4.594-5.047,6.057v1.009H90.588v-1.009c-4.825-4.151-3.133-11.3-4.037-17.161-3.116-.712-4.293-1.968-5.047-5.048-1.4-1.356-2.772-5.356-3.028-8.076,1.9-.84,2.948-1.335,4.037-3.028C85.255,259.588,86.952,261.355,90.588,262.154Zm17.158,3.028c8.059-.837,5.177-5.345,11.1-7.066,1.11,1.251,3.731,3.2,6.056,3.028v-1.009h3.028l1.009,3.028,4.037,2.019c-1.088,2.8-.861,3.2-3.028,5.048v1.009c-2.692,1.71-1.3-1.572-4.037,2.019h-1.009c-2.533,4.777,4.049,7.958-5.047,9.085l-2.019-3.028H116.83V277.3h-1.009v-4.038l-2.019-1.009-2.019-3.029h-2.018v-1.009C108.267,266.819,108.457,267.69,107.746,265.182Zm155.436-4.038c4.2,0.5,4.731,1.908,10.094,2.019v5.048c6.85,3.292,4.006,6.075,15.14,6.057v1.009h4.037v-2.019c2.647,0.666,3.257,1.608,5.046,3.029V277.3l11.1,4.038v2.019a14.8,14.8,0,0,0-5.047,5.047v2.019h-1.009l-3.028,4.038H297.5q-0.5,1.01-1.009,2.019h-2.018l-7.066,4.038v6.057h1.01q-0.505,2.523-1.01,5.048H286.4v6.057l-6.056-1.01v-1.009l-3.028,1.009v5.047c-1.145.853-.147-0.128-1.009,1.01-3.246-.777-2.175-1.522-6.056-2.019-0.883,3.943-3.229,5.918-8.075,6.057v-1.01h-3.028c-0.66,4.57-.707,5.918-6.056,6.057-0.852-1.145.128-.146-1.009-1.009q0.5-1.515,1.009-3.029H252.08c-1.15-1.149,0-.4-2.019-1.009q-0.5-2.019-1.009-4.038l-5.047-1.01c-1.451-3.3-3.2-6.007-4.037-10.094l6.056-1.01c0.48-1.221.389-2.54,1.009-4.038h1.009v-3.028l3.028-2.019v-2.019h1.01q0.5-2.524,1.009-5.048l2.019-1.009c2.284-2.456,4.432-3.864,5.046-8.076a8.507,8.507,0,0,1-2.018-3.029h1.009c4.042-3.722,7.68.488,8.075-8.075-1.293-1.058-1.084-1.727-2.019-3.029h-1.009V269.22h-1.01a1.621,1.621,0,0,1,1.01-2.019Q263.687,264.173,263.182,261.144Zm-121.119,32.3a34.576,34.576,0,0,0-8.074,1.009l-1.01,3.029h-5.046c-0.546-1.143-1.84-1.692-2.019-2.019-2.01-3.676,1.108-4.62-4.037-6.057-0.006-2.677-.372-5.771,1.009-7.067l3.028-1.009v-7.066h1.009c2.75-3.581,1.423-.313,4.038-2.019,0.563-.368.866-2.152,2.018-3.029,1.749,2.013,2.315.847,4.038,2.019l3.028,4.038,4.037-1.009v1.009l3.028,1.01-3.028,4.037h-1.009Q142.568,286.885,142.063,293.448Zm-30.28-23.218c0.587,2.341.9,2.417,2.019,4.038h1.009v4.038h1.01a9.181,9.181,0,0,1,2.018,4.037h2.019c0.278,1.9,1,1.983,1.009,2.019v5.048h1.01c1.15,1.149,0,.4,2.018,1.009,0.144,2.564.057,3.552,1.01,5.048h1.009v2.019h1.009v5.047c-1.145.852-.146-0.128-1.009,1.01a10.68,10.68,0,0,0-4.037-1.01c-0.468-2.414-1.169-3.174-2.019-5.047-3.843.685-3.227,0.668-7.065,0l-4.038,6.057h-2.018v1.009c-1.5-.578-2.046-0.389-4.038-1.009v-1.01l-5.046,1.01v-1.01c-2.114-1.351-3.086-2.343-6.056-3.028v-7.067l4.037-3.028v-2.019l4.037-2.019,5.047-14.133,4.037,1.01,1.01-2.019h2.018Zm56.523,18.17c2.334-.267,2.565-0.211,4.037-1.009v-1.01a2.682,2.682,0,0,1,3.028,1.01,26.794,26.794,0,0,1,4.037-1.01,34.943,34.943,0,0,1,1.01,7.067l-2.019,1.009q-0.5,1.515-1.009,3.029h-2.019V298.5h-1.009s-0.793-1.76-2.019-2.019H167.3v-1.009c-1.374-1.177-1.542-1.842-2.018-4.038l-3.028-1.01s-1.236,1.893-3.028,1.01v-1.01h-1.01V289.41H157.2v-2.019h-1.009v-2.019l-2.019-1.01c-1.884-2.035-3.351-3.782-4.037-7.066,5.607-1.208,6.031-5.641,11.1-7.066,1.453,2.488,3.168,2.814,4.038,6.057C167.3,278.327,167.727,285.031,168.306,288.4Zm51.475,4.038h-2.018c-0.663.26-.49,2.4-2.019,2.019v-1.009l-3.028-1.01v-1.009c-3.588-1.3-8.708.575-11.1,1.009a21.556,21.556,0,0,0-2.018-10.095l-7.065-2.019v-6.056c2.546-1.352,3.537-2.009,8.074-2.019,0.888,1.923,3.393,7.288,5.047,8.075,2.169,1.034,2.879-1.249,4.037-1.009,3.988,0.826,8.744,6.069,9.084,11.1C219.921,291.569,219.174,290.423,219.781,292.438Zm634.867,2.019q0.5,2.524,1.009,5.048h-3.028q0.5,2.019,1.009,4.038h-1.009v1.009c-2.059,1.094-4.07-.849-5.047-1.009v1.009h-2.018l-3.028,4.038h-2.019l-3.028,4.038H835.47q-0.5,1.01-1.009,2.019h-1.009v2.019l-2.019,1.01v4.037c-1.856,2.186.191,5.846-1.009,9.086h-1.009v2.019c-0.559,1.042-2.549.042-2.019,3.028h1.009l2.019,6.057-2.019,1.01q-0.5,4.036-1.009,8.076h-1.009q-0.505,2.018-1.01,4.038h-1.009v3.028h-1.009c-1.768,5.5.987,13.139-1.01,18.171H821.34q-0.505,2.019-1.009,4.038h-1.01c-1.051,2.742.33,4.963-1.009,7.066l-2.019,1.01c-1.769,2.032-1.846,3.147-2.018,7.066a10.7,10.7,0,0,0,4.037,1.01v-1.01l6.056-1.009v-1.01c1.426-.86,1.732-0.742,4.037-1.009l3.028,9.085,2.019-1.009q0.5-1.515,1.009-3.029c-1.927-1.268-1.674-1.023-2.019-4.038l3.028-1.009v3.028H838.5q-0.5,3.533-1.009,7.066h2.019l2.018-3.028h1.01v-6.057c0.072-.209,1.811-0.4,2.018-2.019h-1.009a11.171,11.171,0,0,1-1.009-4.038h5.046q0.505-1.513,1.01-3.028c4.081,0.064,6.42.438,9.084,2.019l1.009,2.019,10.093,1.009v3.029h-1.009v1.009h-3.028v1.01H870.8q0.5,3.027,1.009,6.057h3.028v1.009c3.519,3.625.425,7.8,2.019,13.123h1.009v4.038h1.01v3.029h1.009l1.009,3.028,3.028,2.019v4.038h1.009v2.019l3.028,2.019q0.505,3.029,1.01,6.057c0.919,2.308,5.057,8.4,4.037,12.114h-1.009v3.028h-1.01c-1.206,3.875.04,9.221-1.009,12.114-2.028-.579-0.873.121-2.019-1.009h-1.009c-0.439-.86,2.134-2.06,1.009-4.038h-1.009c-1.15-1.15,0-.4-2.019-1.01v-2.019c-2.546-1.351-3.537-2.008-8.074-2.019v4.038c-2.741,1.175-4.219,1.8-5.047,5.048h1.01c0.886,1.119-.19.235,1.009,1.009h1.009l1.01,2.019h2.018v1.01a23.783,23.783,0,0,1,4.037-1.01v4.038c-1.183.571-1.618,1.792-2.018,2.019-3.365,1.913-3.6-1.511-5.047,4.038,0.889,0.6,2.765.92,2.019,3.028h-1.009c-0.613,2.416-.321,1.877-2.019,3.029-2.427,2.418-6.375,2.141-10.093,1.009V486.26c-3.839-.868-3.145,1.626-4.038,2.019h-2.018V490.3h-1.01a1.768,1.768,0,0,0,1.01,2.019c0.453,2.543-.5,3.636-1.01,5.047l-3.028,1.01v-6.057h-1.009q-0.5-2.019-1.009-4.038l2.018-1.01q0.505-2.523,1.01-5.047c-3.135-2.858-1.183-5.339-7.066-6.057-0.372.671-3.616,5.739-4.037,6.057h-2.019v1.009c-3,1.864-.8-0.855-3.028,2.019h-1.009v4.038c-1.459,3.278-8.648,7.616-13.121,8.076-1.548-2.426-2.91-1.584-4.037-3.028v-2.019l-2.019-1.01v-2.019H817.3q-1.515-2.018-3.028-4.038c2.222-1.45,2.764-3.664,3.028-7.066h2.018a15.843,15.843,0,0,0,1.01-6.057c-2.508-1.538-.627-1.092-2.019-3.028H817.3c-1.39-1.735-1.677-2.025-2.019-5.048l-6.056-1.009c-0.953-1.819-1.4-1.59-2.019-4.038H806.2c-0.753-1.385.691-6.448,1.009-7.067l2.019-1.009c-0.3-1.922-1.595-2.657-2.019-5.048l5.047-3.028q0.5-2.523,1.009-5.047c0.812-1.424,3.9-2.7,5.047-5.048H817.3c-0.579-2.467-1.057-2.227-2.019-4.038,7.951,0.393,11.192,1.114,11.1-7.066l-3.028-2.019c-2.34-4.556,3.541-5.988-3.028-8.076v-1.01h-1.01q-1.01,1.515-2.018,3.029l-7.066,2.019c-1.067,5.633-6.24,10.087-13.121,10.095l-3.028-6.057c-2.636,1.395-1.709,1.785-6.056,2.019q-0.5-1.515-1.009-3.029c1.246-1.107,3.2-3.735,3.028-6.057h-1.01v-3.028h1.01c1.15-1.15,0-.4,2.018-1.01l5.047-11.1h-1.009c-1.378-2.536-2.355-3.639-6.056-4.038-1.369,2.319-7.125,5.49-9.084,4.038h-1.009q-0.505-3.533-1.01-7.066h1.01V388.34h1.009v-6.057c-1.912-.943-4.856-2.243-6.056-4.038h2.019v-8.076c-1.9-.841-2.948-1.335-4.038-3.029l3.028-1.009c1.243-2.185-1.022-5.1-1.009-6.057v-1.009h1.009v-9.086c4.232-2.271,6.814-4.432,13.121-5.047q0.505-3.029,1.01-6.057a11.354,11.354,0,0,0,9.084-5.048h1.009v-4.038c0.9-1.421,2.621-.024,4.037-1.009l1.01-2.019a12.278,12.278,0,0,1-5.047-6.057v-3.028l-2.019-1.01v-2.019h-1.009c-0.979-1.471-.868-2.5-1.009-5.047h1.009v-5.048h1.009v-2.019l2.019-1.009q-1.01-7.067-2.019-14.133a12.818,12.818,0,0,1,5.047-1.01c2.408,3.837,4.733,2.309,10.093,2.019,0.954-1.818,1.4-1.589,2.019-4.038a34.532,34.532,0,0,0,8.075-1.009q0.5-2.523,1.009-5.047c3.311-1.559,3.9-2.89,9.084-3.029v1.01h3.028V277.3h1.009c1.675,3.084,3.545,4.542,4.037,9.085-1.927,1.64-2.019,3.377-2.018,7.067a4.023,4.023,0,0,1,2.018,2.019l4.038-1.01,1.009-2.019h1.009l1.01,2.019a2.619,2.619,0,0,0,3.028-1.009ZM170.324,298.5v4.038h-2.018q0.5,3.029,1.009,6.057h-1.009c-1.251,2.227-2.854,3.558-4.038,6.057a17.947,17.947,0,0,1-3.028-3.028h-5.046c-0.065-.021.124-0.617-2.019-1.01V308.59h-4.037q-0.506-2.523-1.01-5.047h-1.009l-1.009-2.019h-2.019v-1.01l-4.037-3.028v-3.029c6.109-4.109.521-7.8,3.028-13.123a18.711,18.711,0,0,0,3.028-3.028c1.145,0.852.147-.129,1.009,1.009l6.056,5.047q0.505,2.019,1.009,4.038l2.019,1.01v2.019l2.019,1.009v1.01l5.046-1.01v1.01C167.246,296.064,164.288,297.122,170.324,298.5Zm28.261-15.142c0.732,3.512,1.874,4.39,2.019,9.085l-6.056,1.01c-0.913,1.793-2.5,4.765-4.037,6.057-1.757-1.82-4.436-2.014-8.075-2.019a18.067,18.067,0,0,1,0-9.086c1.145-.852.147,0.128,1.01-1.009h3.028v-4.038c2.4-1.145,4.53-3.06,6.056-2.019Zm112.036-3.029h3.028c0.4,3.543,1.226,5.057,3.028,7.067L318.7,288.4v2.019h1.01q1.008,3.029,2.018,6.057h1.01c0.8,2.258-.47,6.775-1.01,8.076h-1.009c-0.932,2.673,1.08,10.769,1.009,11.1h-1.009c-1.591,4.118-2.665,2.594-3.028,8.075l7.065,5.048c-0.378,1.979-2.273,6.062-1.009,9.085h1.009c0.822,1.47.7,1.72,1.01,4.038-2.146,1.432-2.043,2.642-3.028,5.048H312.639c-1.223,2.148-2.273,2.2-3.028,5.047H308.6v5.048h-3.028c-0.344-.136-0.354-1.809-2.019-2.019v1.009l-4.037,1.01v-1.01l-2.019-1.009v-2.019l-6.055-2.019v-1.01c-4.273-1.36-4.577,2.936-7.066,2.019q-1.01-2.019-2.018-4.038H276.3l-6.056-8.076-6.056,1.01-2.019-3.029h-3.028l-1.009-3.028h-1.01c0.77-3.19,2.248-3.685,3.028-7.067,5.688,0.172,7.294-.643,10.094-3.028l1.009-2.019c2.891-1.2,4.929,5.013,7.065-2.019h1.01v-3.028l8.074,1.009c0.852-1.145-.128-0.147,1.01-1.009v-7.067h1.009q0.5-2.019,1.009-4.038l-2.018-1.009v-4.038l3.028-1.01q0.5-1.01,1.009-2.019h3.028v-1.009H297.5l1.01-2.019h2.018l3.028-4.038h1.01q0.5-2.019,1.009-4.038h1.009C308.4,285.142,309.887,283.747,310.621,280.324Zm-71.662,30.285c0.062,6.609,2.837,7.1,4.037,12.114l5.046,1.009v3.029h1.01c1.15,1.149,0,.4,2.018,1.009v4.038c3.983,1.5,5.093,1.35,6.056,6.057a13.965,13.965,0,0,1,8.075,5.048c-1.928,1.639-2.02,3.377-2.019,7.066l-8.074,1.01a15.847,15.847,0,0,1-1.01-6.057c-3.547-.924-2.879-2.456-7.065-3.029-2.566,2.994-4.756,2.348-5.046,8.076,1.669,1.409,2.5,3.49,3.028,6.057l3.027,1.01v1.009h2.019v1.01c3.675,1.384,8.611-1.245,11.1,1.009h-1.01c-2.5,2.476-3.827.513-5.046,5.047-2.427-.517-3.105-1.3-5.047-2.019v1.01a13.694,13.694,0,0,0-8.074,6.057v2.019l-7.066,6.057v2.019c-1.7,2.347-5.409,3.484-7.065,6.057l-6.056-5.048v-1.009l-3.028,1.009v-1.009c-1.87-1.386-2.363-1.259-3.028-4.038,2.788-.73,2.258-0.282,3.028-3.029a4.017,4.017,0,0,1-2.019-2.019c3.23-.833,2.929-1.19,3.028-5.047-1.145-.852-0.146.128-1.009-1.01h-4.037c0.4-3.29,4.059-10.41,2.018-15.142l-2.018-1.009v-3.029h-1.01c-1.653-5.237,3.1-6.244,2.019-10.095h-1.009q-0.506-2.019-1.01-4.038l-2.018-1.009-4.038-11.1a29.6,29.6,0,0,1-7.065-1.009c-1.052-2.384-1.788-4.46-3.028-7.066h-1.009v-4.038h-1.009c-2.283-2.565-3.78-.953-5.047-5.048l-6.056-1.009V298.5c3.576,0.321,3.986,1.327,7.065,2.019,2.607-5.49,1.8-6.312,10.093-6.057,1.871-1.708,9.888-2.328,12.112-1.009l2.019,3.028c1.967-.491,1.486-1.516,4.037-2.019v1.01c-2.7,2.392-1.216,5.041-1.009,10.1,1.145,0.852.147-.128,1.009,1.009l3.028-1.009q0.505-2.524,1.01-5.048h4.037l2.019-8.076c3.245,0.778,2.174,1.523,6.056,2.019l2.018-3.028h1.01V289.41c0.323-.435,3.888-3.442,5.046-3.029v1.01l3.028,1.009v1.01c3.172,1.776,2.72-1.717,4.037,3.028,0.761,0.864,1.538.561,1.01,3.029h-1.01v4.038l-3.028,2.019v2.019h-1.009q-0.5,2.523-1.009,5.047L243,309.6v1.009h-4.037ZM149.128,309.6c4.473,0.287,4.476,1.255,7.066,3.028v1.01h6.056q0.5,3.027,1.009,6.056h1.009c1.523,1.761,4.332,2.519,7.066,3.029a28.71,28.71,0,0,0,3.028,10.095h1.009q0.5,4.542,1.009,9.085h1.01q0.5,2.019,1.009,4.038H177.39c-0.867.811-7.829,2.758-10.094,2.019v-1.009h-2.018v-1.01a1.654,1.654,0,0,0-2.019,1.01l-9.084-1.01c-1.446,3.591-2.271,6.553-7.065,7.067-1.15-1.15,0-.4-2.019-1.01q0.505-6.055,1.01-12.114h-2.019a40.569,40.569,0,0,0-1.009-9.085h-4.038q0.506-2.523,1.01-5.048H135c0.526-1.887,3.612-5.512,3.028-7.066h-1.009c-0.427-1.8-.815-4.07-2.019-5.047h-2.019l-1.009-2.019c-1.146-.752-4.4-0.864-5.047-2.019v-4.038h1.01v-5.048a11.526,11.526,0,0,0,2.018-2.019h3.028v-1.009l5.047-3.029v1.01l3.028,2.019v2.019l2.019,1.009v1.01h2.018C147.29,303.159,148.507,306.348,149.128,309.6Zm40.374-6.057c0.73,2.788.281,2.258,3.028,3.028v1.01h3.028c0.067,5.1,1.5,5.774,2.018,10.095-3.126,1.658-1.812,1.916-7.065,2.018-2.337-3.977-8.5-5.17-15.14-5.047a2.477,2.477,0,0,1-1.009,2.019c-1.188,4.191,2.715,2.6-1.01,6.057-1.438-1.452-5.635-2.57-8.074-3.029a10.68,10.68,0,0,1-1.01-4.037c2.077-1.363,3.688-4,5.047-6.057h1.009q-0.5-3.029-1.009-6.057l2.019-1.01v-5.047h1.009c1.352,2.06,1.652,1.9,5.047,2.019a13.42,13.42,0,0,1,3.028-4.038v1.009l3.028,2.019c1.98,3.079-1.8,2.566,3.028,4.038v1.01H189.5ZM112.793,298.5h2.018v1.01c1.806,0.59,3.52.05,4.038-1.01h1.009c2.874,2.708-1.03,4.535,6.056,6.057v6.057l3.028,1.01v1.009h2.019v1.01h2.018v1.009l2.019,1.01v2.019h1.009v5.047c-0.427.962-3.876,1.37-3.028,4.038h1.01v1.009l5.046-1.009c-1.086,2.983-1.027,2.084,0,5.047h3.028q0.506,4.543,1.01,9.086l-3.028,1.009v1.01H135c-0.093.029,0.188,0.629-2.019,1.009q-1.01,3.028-2.018,6.057L123.9,352v-5.047c-1.149-1.15-.4,0-1.009-2.019l-6.056,1.009-1.009-2.019-9.084,1.01q-0.505-2.019-1.01-4.038h-2.018l-1.01,2.019-6.055-1.01v-1.009H95.634V341.9H91.6v-1.009H90.588l-1.009-7.067c0.225-.709,2.577-0.1,2.019-3.028H90.588l-1.009-4.038c4.748-1.653,5.063,1.055,9.084,0v-1.01h2.019c0.623-1.671.169-7.406,1.009-9.085l6.056-4.038q-0.5-3.532-1.009-7.066c1.818-.954,1.589-1.4,4.037-2.019C111.424,300.778,112.1,301.245,112.793,298.5ZM89.578,324.742l-1.009,5.047h1.009v4.038H88.569v4.038h1.009l1.009,5.048h2.019c-0.311.879-1.93,2.234-1.009,4.038h1.009v1.009h3.028v1.01c-1.145.852-.147-0.128-1.009,1.009-1.042.575-1.659,1.807-2.019,2.019H90.588v1.01L85.541,352l-1.009,2.019-6.056-1.009c0.019-2.916.177-5.455-1.009-7.067l-2.019-1.009v-4.038c-0.556-1.315-.47.312-1.009-1.01H71.41V341.9a46.654,46.654,0,0,1-8.075-2.019c1.455-4.155.994-3.839-1.009-7.066H61.317c-1.165-2.794,1.25-5.7,2.019-7.067h1.009L63.336,320.7c-4.492-1.443-6.393.595-7.065-5.047a4.021,4.021,0,0,0,2.019-2.019c2.637,1.4,1.709,1.785,6.056,2.019v-2.019c-2.883-1.2-5.527-2.434-7.065-5.048,2.756-1.6,2.468-2.768,7.065-3.028v1.009h5.047l4.037,7.067h2.019c2.293-3.386,4.719-2.176,5.047-8.076,3.267,0.332,2.966.916,5.047,2.019v-2.019c-1.149-1.15-.4,0-1.009-2.019l6.056,1.009v-1.009c1.263-.857,1.243-0.642,2.019-2.019H91.6c-1.554-1.329,1.948-.988,2.019-1.01l2.019,3.029h2.019l1.009,2.019a1.531,1.531,0,0,0,2.019-1.01c2.58-.4,3.6.516,5.046,1.01q-0.5,1.514-1.009,3.028h1.009c0.723,2.193,1.041,2.116,0,3.029-1.173,1.839-2.747,2.295-4.037,4.038h-1.009v8.075l-3.028,1.01v1.009l-4.037-1.009v-1.01C93.137,323.684,91.45,324.655,89.578,324.742ZM56.271,312.628l-1.009,7.066a19.337,19.337,0,0,0,7.065,1.01v6.057l-2.019,1.009v6.057l2.019,1.01v6.057a8.951,8.951,0,0,1-4.037-1.01v-1.009l-3.028,1.009-1.009,4.038H53.243l1.009,7.067L51.224,352c-3.36,2.683-.661,5.31-7.065,6.057v-2.019c-3.126-1.658-1.812-1.916-7.065-2.019-1.1,1.817-2.2,2-4.037,3.029v-1.01c-1.045-.77-1.4-2.663-2.019-3.028l-3.028,1.009v-8.076c0.738-.814,2.7-9.068,2.019-11.1H29.019v-2.019H28.009c-1.014-3.041,1.513-5.381,1.009-7.067L27,324.742v-10.1h2.019l1.009-3.028h1.009v1.009h1.009l2.019,6.057h2.019v-3.028h3.028v1.009l6.056-1.009a27.08,27.08,0,0,0,3.028,3.028v-5.047H47.187c-1.046-1.919.691-4.2,1.009-5.048C52.529,309.747,51.147,311.914,56.271,312.628Zm120.11,3.029h6.056q0.505,1.008,1.01,2.019h4.037l3.028,4.037c4.55,2.051,6.014-2.705,7.065-3.028,0.286-.088,6.094,1.918,9.084,2.019,0.732,3.512,1.873,4.39,2.019,9.085-3.913,2.255-7.367,6.809-11.1,9.086L187.483,341.9q-0.506,1.515-1.009,3.029c-1.319,1.422-4.372.947-7.066,1.009q-0.5-3.028-1.009-6.057H177.39v-6.057h-1.01a30.961,30.961,0,0,1-3.028-10.095h2.019A39.992,39.992,0,0,0,176.38,315.657ZM32.047,344.932c-0.579,2.029.121,0.873-1.009,2.019,0.646,2.769,1.92,3.725,3.028,6.057,2.029-.579.873,0.121,2.019-1.01a7.606,7.606,0,0,0,6.056-6.057h2.019a10.7,10.7,0,0,0-1.009,4.038h2.019c1.675-3.084,3.545-4.541,4.037-9.085-1.76-1.523-2.518-4.333-3.028-7.067H41.131c-1.15-2.529-2.754-3.835-4.037-6.057H36.084c-0.579,2.029.121,0.874-1.009,2.019,0.959,5.023,2.62,6.635,6.056,9.086h2.019v1.009H42.14v1.01H39.112l-2.019,5.047ZM607.363,327.77c-0.642,5.219-2.282,2.822-3.028,8.076h6.056c1.811,3.268,3.733,3.989,4.037,9.086-1.6,1.366-1.753,2.189-2.019,5.047,1.35,0.466-.328.511,1.01,1.01h5.046V352c-2.457,1.525-2.92,3.1-3.028,7.067,4.779,2.874,1.533,4.135,3.028,6.056v1.01H622.5l-2.019,9.085h-1.009v2.019h-1.01q0.505,3.029,1.01,6.057l-2.019,1.01q0.5,5.551,1.009,11.1c2.338,0.883,4.448,1.027,8.075,1.01v-1.01h1.009v-3.028h7.066q1.008-2.019,2.018-4.038c1.145,0.852.147-.128,1.009,1.009h1.01v4.038h1.009v1.01h2.019c1.467-2.293,3.137-1.761,4.037-3.029,0.967-1.362,1.388-6.4,2.019-8.076,1.818-.953,1.589-1.4,4.037-2.019v-3.028h1.009l4.038-8.076h3.028v1.009h4.037c1.382,2.192,5.04,3.179,6.056,5.048,1.552,2.854-.677,3.663,2.019,6.057,1.884-2.379,3.659-3,8.074-3.029,1.174,6.152,4.808,9.92,7.065,15.143h-6.055v-1.01h-4.038v1.01H676c-0.068,2.881-.248,4.325-1.009,6.057h-1.01v1.009h1.01v5.047c2.233,1.2,3.015,2.353,6.056,3.029V415.6h-3.028l-1.01,2.019c-0.1.029-5.16-.973-7.065-1.01,1.2-3.275,1.571-4.593-3.028-5.047l-2.019,3.028-3.028,1.01c-2.785,3.631.584,4.622-6.056,6.057v2.019c-2.117-.114-7.918-0.924-9.084-2.019-1.149-1.15-.4,0-1.009-2.019l-6.056,1.009v-1.009h-4.037q-0.505,1.01-1.009,2.019H632.6v1.009c-1.686.468-1.816-.969-2.019-1.009l-6.056,1.009q-0.5,1.515-1.009,3.029c-4.339.019-6.131,0.514-7.065,4.038h-1.01v4.038c1.818,0.953,1.589,1.4,4.038,2.019-0.288,2.326-.2,2.569-1.01,4.038h-1.009c-1.529,3.78,1.474,7.29,2.019,9.085q-0.505,6.056-1.01,12.114c-2.622,1.573-8.442,10.218-10.093,13.123h1.009c1.177-1.374,1.842-1.543,4.038-2.019v1.01l-15.14,12.113v2.019l-2.019,1.01-1.009,3.028h-2.019v1.01H590.2v1.009h-2.019v1.01l-6.055,1.009v1.01c2.636,1.395,1.708,1.786,6.055,2.019V501.4h-5.046v-2.019a12.82,12.82,0,0,0-5.047-1.009v-4.038c-1.145-.852-0.147.128-1.009-1.01h-3.028q-0.5-2.018-1.009-4.038h-1.01v-1.009H565.98v-1.01a9.429,9.429,0,0,0-4.037-2.019v-2.019c-2.655-1.519-3.409-3.219-7.065-4.037v-5.048h-2.019v-1.009l-5.047,3.028v1.01h-4.037v-2.019l-6.056,1.009v-1.009c-4.357-1.136-3.482-3.229-6.056-5.048a29.027,29.027,0,0,0-9.084-4.038q-0.5-2.019-1.009-4.038h-2.019q0.505-2.523,1.01-5.047H524.6a10.962,10.962,0,0,1,2.019-2.019v-6.057l3.028-2.019q-0.505-4.038-1.01-8.076a11.1,11.1,0,0,0,2.019-2.019l4.037,1.01V436.8c2.376-1.978,3-4.647,3.028-9.085-0.637-.481-3.549-3.7-3.028-5.048h1.01c0.615-4.3,1.293-7.564,6.055-8.076,2.146,2.045,5.59.529,8.075,0l1.009-3.028c2.029,0.579.874-.121,2.019,1.009,1.421,1.586,3.555,9.28,7.065,8.076v-1.009a4.021,4.021,0,0,0,2.019-2.019c-0.888-.6-2.765-0.92-2.019-3.029h1.01c2.263-8.625,10.426-5.4,11.1-15.142h-1.009v-3.028a10.68,10.68,0,0,1,4.037-1.01l4.038,6.057,5.046,1.009v1.01l3.028,1.009v-1.009h1.009v-4.038c0.512-.973,4.9-2.491,4.038-5.047h-1.01c-0.69-2.955-1.123-3.306-4.037-4.038V388.34H589.2a6.78,6.78,0,0,1,3.028-3.029v-4.038l-5.047-1.009c-1.1-2.1-1.626-1.788-2.018-5.048,1.974-1.91,2.066-5.094,2.018-9.085H589.2q1.01-1.513,2.018-3.029h1.01v-3.028l4.037-3.028c0.611-1.265.274-4.055-1.009-4.038V352h2.018v-2.019h1.01q-0.505-1.513-1.01-3.028h-2.018q-0.505-2.019-1.01-4.038l2.019-1.01v-10.1C604.138,331.807,602.2,329.238,607.363,327.77ZM39.112,333.827l6.056,1.01,3.028,9.085c-1.735,1.138-1.368.639-2.019,3.029-1.149-1.15-.4,0-1.009-2.019H42.14l-3.028,5.047c-1.625,1.344-1.045-1.033-3.028,2.019H35.075v-1.009c-1.994-1.14-2.36-1.431-3.028-4.038h1.009v-1.01l4.037,2.019v-1.009c3.034-2.1.43-1.856,2.019-4.038l5.047-2.019v-3.029l-5.047-1.009c-1.1-2.472-1.83-3.256-2.019-7.067H38.1v2.019C39.252,332.958,38.5,331.812,39.112,333.827Zm179.66,33.313c-0.73,2.789-.282,2.259-3.028,3.029q0.5,2.523,1.009,5.047l-2.018,1.01v3.028l3.028,1.01v2.019H221.8c1.48,2.744,3.107,4.613,7.065,5.047,1.536-2.84,2.645-3.88,7.066-4.038v1.01h4.037v1.009l3.028,1.01c-0.579,2.029.121,0.873-1.009,2.019a7.819,7.819,0,0,1-3.028,2.019q0.5,1.514,1.009,3.028h1.009v4.038l2.019,1.01v4.037h1.009c1.387,1.931,2.271,2.336,3.028,5.048h-1.009c-1.791,3.152-3.974,3.179-9.084,3.028-1.058-1.314-2.063-1.5-3.028-3.028H232.9v-3.029h-3.028v1.01l-4.038,1.009V405.5c-1.08-.934-0.25.2-1.009-1.01v-1.009l-3.028-2.019v-8.076h-1.009c-1.332-1.675-1.633-2.347-5.047-2.019v1.01h-1.009v-1.01h-1.01c-0.655-2.009-1.356-2.021,0-4.038h-1.009v-1.009h-3.028l-1.009-2.019a2.5,2.5,0,0,0-3.028,1.009c-3.055.706-6.377-.4-8.075-1.009v-8.076h-1.009c-1.463,2.48-3.289,2.912-6.056,4.038v-3.029l2.019-1.009q-0.505-5.552-1.01-11.105h-1.009V363.1l-3.028-2.019-2.019-7.066-6.056,1.01a34.526,34.526,0,0,0-1.009-8.076c5.732,0.534,5.173,1.48,9.084-2.019l1.009-2.019h3.028l1.01-2.019h5.046l2.019-3.029h2.018l1.01-2.019,3.028-1.009v-1.01c1.769-1.456,2.437-2.29,5.046-3.028v1.009c2.317,1.531,2.117,3.39,4.038,5.048-1.9,3.494-4.4,5.643-2.019,11.1h1.009v2.019l2.019,1.01-2.019,15.142A12.8,12.8,0,0,0,218.772,367.14ZM982.832,352q0.505-4.038,1.009-8.076a2.665,2.665,0,0,1-1.009-3.028h1.009l1.01-3.029c2.028,0.579.873-.121,2.018,1.01h1.01v2.019L985.86,341.9q0.505,1.515,1.009,3.029h1.01v6.057c-1.145.852-.147-0.128-1.01,1.009h-4.037ZM64.345,341.9c0.468,2.414,1.169,3.175,2.019,5.048h3.028v2.019a15.823,15.823,0,0,0,6.056,1.009l2.019,9.086h1.009c0.186,1.69-2.9,3.048-2.019,6.056h1.009l2.019,6.057h1.009v3.029H81.5c0.357,1.715-.949,1.75-1.009,2.019v5.047l-6.056-1.009-1.009,3.028H70.4a7.24,7.24,0,0,0,1.009,4.038H70.4v1.01c-1.145-.853-0.147.128-1.009-1.01l-7.065-5.047v-4.038c-1.124-1.7-3.236.111-5.047-1.01l-1.009-3.028c-1.332-1.721-3.969-3.048-6.056-4.038v-1.01h1.009v-4.038l2.019-1.009c1.538-4.006-3.6-7.858-2.019-10.1v-1.009h3.028V352h1.009c-0.086-4.081,0-8.449,1.009-11.1l4.037,1.009v1.01C60.786,342.961,62.474,341.99,64.345,341.9Zm10.093-1.009v5.047h1.009c0.691,1.068,3.4,3.332,2.019,6.057H76.457V348.97L70.4,347.96v-2.019H67.373v-1.009a7.814,7.814,0,0,1-2.019-3.029h3.028v1.01c2.918,1.367,3.448-1.735,4.037-2.019h2.019ZM277.313,363.1v2.019l-4.037,2.019q0.5,2.524,1.009,5.048c3.551,0.617,4.632,1.086,5.047,5.047-1.927,1.268-1.675,1.024-2.019,4.038-7.437-1.355-9.175-6.4-15.14-8.076v1.01a11.87,11.87,0,0,0-3.028,4.038h1.009c1.15,1.149,0,.4,2.019,1.009v2.019a9.83,9.83,0,0,0-4.037,1.01c0.852,1.145-.128.147,1.009,1.009,2.7,3.3,2.941.392,3.028,7.067-3.192-.9-3.637-2.519-6.056-4.038v-1.01l-5.047,1.01q-0.5,3.027-1.009,6.057a18.073,18.073,0,0,1-8.074-1.01s-2.416-1.254-1.01-1.009H243q0.5-2.524,1.009-5.048c-3.44-.69-4.655-2.249-8.074-3.028v-4.038h2.018c1.355-2.463,3.878-3.345,5.047-5.048v-2.019a12.134,12.134,0,0,1,9.084-6.057c1.845,2.511.77,1.3,4.037,1.01,0.932-3.714,2.886-3.782,6.056-5.048v-3.028l-13.121-1.009q-0.505-1.01-1.01-2.019h-2.018c-0.69-3.441-2.249-4.657-3.028-8.076,2.756-1.6,2.468-2.768,7.065-3.029,0.628,1.3,1.662,1.447,2.019,2.019v2.019h1.009v3.029c1.122,1.521,5.432,1.085,8.075,1.009v-1.009h3.028a27.293,27.293,0,0,1,3.028-10.095h2.018q3.029,4.036,6.056,8.076h2.019v1.009l4.037-1.009v1.009c2.029,1.894-.091.9,1.01,3.029l2.018,1.009q-0.5,3.029-1.009,6.057C281.136,361.277,280.353,362.426,277.313,363.1Zm-183.7-20.189c4.882-.071,7.73,1.689,11.1,0v1.009c1.149,1.15.4,0,1.009,2.019h2.019c0.415,2.387,1.922,5.577,1.009,9.086h-1.009v4.038h1.009q1.515,2.523,3.028,5.047l-3.028,2.019q-0.5,3.533-1.009,7.066h-4.037v1.01c-0.4.041-2.249-.9-4.038-1.01a29.65,29.65,0,0,0,1.01,7.067c-2.414.468-3.174,1.169-5.047,2.019V384.3c0.326,0.654,3.167,1.47,3.028,3.028H97.653c-2.044,2.393-5.649,3.006-10.093,3.029-0.491-1.341-.507.326-1.009-1.01V384.3l-4.037-3.029v-2.019H81.5l1.009-6.057H81.5v-3.028H80.494V368.15H79.485v-2.019H78.476v-5.048h1.009l-1.009-6.056c1.145-.853.147,0.128,1.009-1.01l3.028,1.01v1.009c2.951,0.584,2.135-1.644,3.028-2.019h5.047v-1.009c3.693-1.742,5.993-1.689,7.065-6.057-1.343-.484.313-0.472-1.009-1.01H92.606v-1.009C93.756,343.782,93.008,344.928,93.616,342.913Zm29.271,10.095h-2.019q0.505,4.037,1.01,8.075l-3.028,1.01c0.62,3.868,1.153,3.648,3.028,6.057h1.009v2.019H123.9c1.082,2.975-1.972,13.086-3.028,14.133-1.15,1.149,0,.4-2.018,1.009v-2.019c-1.145.852-.147-0.128-1.01,1.01H116.83q0.5,3.532,1.009,7.066H113.8v-1.009a1.585,1.585,0,0,0-2.019,1.009c-1.662.245-6.966-1.337-8.074-2.019l-1.01-2.019h-2.018v-1.009a8.363,8.363,0,0,0-4.037-2.019v-1.01h1.009c1.176-1.374,1.841-1.542,4.037-2.019q-0.5-3.533-1.009-7.066H102.7v2.019h2.019v-2.019h4.037V373.2h1.01V367.14h1.009c1.287-1.962,1.56-1.9,2.019-5.047-1.956-1.157-2.4-2.7-4.038-4.038q0.506-2.523,1.01-5.047h1.009q-0.5-3.534-1.009-7.067a12.8,12.8,0,0,1,5.046-1.009c3.874,4.089,3.607-.691,7.066,1.009v1.01h1.009v6.057Zm298.761-2.019v3.028h7.065c0.953,1.818,1.4,1.589,2.019,4.038l4.037-1.009v1.009c1.149,1.15.4,0,1.009,2.019h4.038q0.5-1.01,1.009-2.019c2-1.556,3.6-1.78,7.065-2.019,1.059,2.426,1.13,3.242,4.037,4.038l2.019,6.057-3.028,2.019q-0.5,2.019-1.009,4.038l6.056,2.019v1.009h8.074l5.047,6.057h1.009V384.3l7.066,3.028v2.019l-6.056,1.01v1.009c-2.2,1.881-2.115,4.843-2.019,9.086l3.028,2.018v1.01h2.019v1.009c2.7,1.732,1.9-.973,3.028,3.029-3.9,1.016-3.172,2.958-7.066,4.038q-1.01,3.029-2.018,6.057l-6.056,1.009v-1.009h-4.038v1.009c-1.941.3-4.9-2.14-8.074-1.009v1.009l-4.038,1.01v1.009H432.749l-1.009,2.019h-2.019c-0.08-2.361-.8-2.576-1.009-4.038l2.019-1.009q-0.505-3.029-1.01-6.057a10.7,10.7,0,0,0-4.037-1.01c-1.491,1.447-5.1,1.935-8.075,2.019q-1.008-2.523-2.018-5.047c-2.79-1.68-6.085,1.445-8.075-2.019q-0.5-3.028-1.009-6.057l-3.028-2.019v-1.009H401.46l-1.009-2.019-4.038-1.01c-4.254-2.3-6.2-4.907-12.111-6.057q-0.506-4.542-1.01-9.085a1.657,1.657,0,0,0,1.01-2.019h-1.01q-0.5-2.524-1.009-5.048c2.324-1.491,2.943-4.471,5.047-6.057l3.028-1.009v-2.019h1.009l1.009-2.019h7.065v-1.009h1.01v-2.019h1.009v-2.019h1.009c1.215-2.71.4-7.753,3.028-9.086h4.038C411.729,349.331,416.964,350.18,421.647,350.989ZM297.5,358.055c1.578-.067,7.066-1.009,7.066-1.009v1.009h1.009c-0.414,1.06-1.863,2.872-1.009,5.047l2.018,1.01v6.057h1.01c1.15,1.149,0,.4,2.018,1.009V373.2l5.047,1.01v1.009h1.009v4.038h1.01c2.811,3.606,4.732,2.41,5.046,9.086l-3.028,1.009v1.01l-12.112-1.01V388.34h-5.046v-1.01l-4.038-1.009v-1.01c-3.661-1.2-4.214,2.211-6.055,2.019v-1.009l-3.028-1.01V384.3H286.4v-1.01l-7.065-1.009v-1.01c-1.15-1.15-.4,0-1.01-2.019,2.182-1.433,2.029-2.388,2.019-6.057-3.93-.678-4.931-1.38-5.047-6.057,2.788-.73,2.258-0.281,3.028-3.028h2.019c3.946-4.6,5.165-1.628,5.047-11.1h2.018l1.01-2.019,8.074,3.028v2.019C297.639,357.186,296.892,356.04,297.5,358.055ZM42.14,355.027c0.468,2.413,1.169,3.174,2.019,5.047,1.893-.83,2.64-1.5,5.047-2.019v-2.019c1.149,1.15.4,0,1.009,2.019h1.009v3.028h1.009c0.449,2.922-2.787,3.308-3.028,4.038l1.009,4.038-10.093,3.029c-2.546-4.468-5.667-7.112-6.056-14.133,1.818-.953,1.589-1.4,4.037-2.019v-1.009H42.14Zm337.115,45.427H371.18l-5.046,6.056q-0.505,3.534-1.01,7.067h1.01v3.028h1.009q0.5,1.515,1.009,3.029c-3.9,2.707-1.207,5.592-6.056,7.066v1.01l-6.056-1.01v1.01h-2.018v1.009c-4.025,1.189-4.547-1.866-5.047-2.019l-5.047,1.01v-4.038l6.056-2.019v-1.01h-4.037v-2.019c-3.442-1.449-4.887-2.1-5.046-7.066-1.806.372-4.13,2.073-5.047,2.019v-1.01l-4.037-1.009V407.52c1.818-.954,1.589-1.4,4.037-2.019a61.317,61.317,0,0,0-1.009-12.114h2.018a12.818,12.818,0,0,0,1.01-5.047h4.037V384.3a13.431,13.431,0,0,0,4.037-3.029h5.047q0.5-2.523,1.009-5.047h-1.009v-4.038h-1.01c-1.149-1.15,0-.4-2.018-1.01q1.01-4.542,2.018-9.085c3.188-.789,4.278-2.7,7.066-4.038v2.019c-1.927,1.268-1.675,1.023-2.019,4.038,0.6,0.258,3.718.827,4.037,1.009l4.038,5.048,6.056-1.01v1.01h2.018v1.009c3.149,1.061,8.34-.36,10.094-1.009v2.019c-0.7,1.243-1.178-.408-1.01,1.009h1.01v2.019h1.009q-0.505,3.029-1.009,6.057h1.009q0.5,3.028,1.009,6.057h-1.009c-0.744,2.752.264,4.972-1.009,7.067l-3.028,2.019Q378.75,398.434,379.255,400.454Zm607.614-41.389h2.019c0.649,3.526,1.126,2.782,0,6.056-1.145-.852-0.147.128-1.009-1.009-1.025-.778-0.994-1.241-2.019-2.019Q986.366,360.58,986.869,359.065ZM44.159,384.3l-1.009-3.029h1.009v-4.038H43.149v-2.019c-0.251-.416-1.423-0.933-2.019-2.019H42.14v-1.009l8.075-1.01v1.01h2.019l5.047,6.057h3.028v1.009h1.009c-1.6,3.787-2.452,5.076-8.075,5.048C50.384,379.9,47.552,383.348,44.159,384.3Zm823.611-13.124h4.037l5.047,8.076h2.019q0.5,1.01,1.009,2.019H881.9l1.01,2.019h1.009q2.019,6.057,4.037,12.114c1.737,2.556,5.87,3.086,8.075,5.048l10.093,11.1h2.019l2.019,3.028c3.357,3.289,7.772,6.931,13.121,8.076v2.019l-6.056-1.009v-1.01l-8.075,1.01a39.482,39.482,0,0,0,3.028,13.123h1.01v2.019H914.2q0.5,3.029,1.009,6.057h1.01v1.009l3.028,1.01V447.9h2.018l5.047,6.057,6.056-1.009c0.939,3.67,3.109,4.091,4.037,8.076l-3.028-1.01V459h-2.019q-0.5-1.01-1.009-2.019a2.6,2.6,0,0,0-3.028,1.009l-4.037-1.009q2.017,6.055,4.037,12.114H926.31v1.009h-3.028c-1.254-2.792-2.564-4.251-4.037-7.066h-1.01q-0.5-3.028-1.009-6.057l-4.037-3.029q-1.515-5.046-3.028-10.1l-7.066-5.047v-5.047h-1.009v-2.019l-2.019-1.01v-2.019h-1.009V426.7h-1.009v-2.019h-1.01v-2.019l-6.056-5.047V415.6h-1.009v-5.048h-1.009l-2.019-3.028h-2.019v-1.01h-2.018q-0.505-1.008-1.01-2.019h-2.018v-1.009h-2.019c-1.533-1.26-.177-2.886-1.009-5.047h-1.009c-1.813-4.573-1.055-7.728-6.056-9.086q-0.505-2.019-1.01-4.038a4.021,4.021,0,0,0,2.019-2.019l3.028,1.01v-6.057c-2.233-1.2-3.016-2.352-6.056-3.029v-4.038Zm-793.331,10.1,10.093,2.019,2.019,8.076H84.532c-1.1,2.1-1.626,1.788-2.019,5.048,2.454,2.477,1.251,3.929,1.009,8.075a20.193,20.193,0,0,0-8.075,7.067H74.438V415.6H73.429v5.047H72.42c-1.257,4.2.423,8.376-2.019,11.105v1.009H65.354v-1.009H58.289l-1.009-3.029c-2.8-3.308,1.591-6.4,0-11.1H56.271V415.6H55.261l-2.019-9.086c2.253-.85,5.489-1.039,9.084-1.009v-1.01c2.434-.864,2.109,1.6,3.028,2.019h2.019c0.651-1.3,1.624-1.408,2.019-2.019v-2.019c1.5-2.483,3.646-3.411,7.065-4.037v-3.029H75.448c-1.15-1.149,0-.4-2.019-1.009-0.227-2.356-.253-2.552-1.009-4.038H71.41c-0.563-1.678.972-1.836,1.009-2.019,0.462-2.291-.544-2.721-1.009-4.038h3.028v-3.029Zm760.023,7.067-6.056-1.01v-5.047c1.145-.852.147,0.128,1.01-1.01,2.028,0.579.873-.121,2.018,1.01C834.863,383.171,834.527,384.161,834.461,388.34ZM61.317,382.283c1.778,1.39-.447.295,1.009,2.019,0.8,0.952,2.048.777,3.028,2.019H62.326v-1.01H58.289V384.3H59.3C60.077,383.276,60.539,383.308,61.317,382.283ZM48.2,383.292l5.047,1.01v1.009h5.047v1.01H57.28v7.066H56.271v1.01c-2.336-.349-8.74-1.7-10.093-3.029H45.168v-6.057A7.552,7.552,0,0,0,48.2,383.292Zm27.252,12.114v2.019l-5.047,1.01v1.009c-1.724,1.515-2.123,3.821-3.028,6.057-4.669-2.477-4.629-1.286-11.1-1.01-0.71-3.081-1.6-2.158-2.019-3.028v-4.038H53.243L52.233,394.4c3.12,1.118,2.97,1.937,5.047-1.01,3.2-3.9-2.392-6.064,5.047-7.066v1.009h5.047l1.009,2.019,4.037,3.029,1.009,3.028h2.019Zm307.844-6.057h5.047v1.01h2.019q0.5,1.01,1.009,2.019h2.018v1.009H395.4v1.01h2.019v1.009c3.638,2.076,6.928,2.468,8.074,7.066h1.01q0.5,3.029,1.009,6.057a34.573,34.573,0,0,1,8.075,1.01v3.028H416.6v1.01h8.075a8.514,8.514,0,0,1,3.028-2.019v1.009h1.009c-1.219,3.714-.53,6.9,0,12.114,4.872-.569,2.967-1.9,7.065-3.028,1.265,6.834.219,13.2,0,20.19l-3.028,1.009c-3.772,4.132-4.179-.1-9.084,1.009,0,0-.492,1.371-3.028,1.01a1.5,1.5,0,0,0-2.018-1.01v1.01c-2.776,1.763-2.8,3.494-7.066,4.038q-1.008-3.029-2.018-6.057h-1.01v-3.028l-2.018-1.01c-2.787-2.945-2.013-3.158-8.075-3.028-1.1,1.371-5.738,5.158-9.084,4.038l-1.009-2.019-3.028,1.009v1.01c-3.858.861-3.084-1.574-4.037-2.019l-3.028,1.009v2.019h-2.019v-2.019l-2.019-1.009c-0.662-1.029-4.377-7.117-4.037-8.076h1.009c0.781-2.959,1.636-2.918,4.038-4.038v-1.01h-9.084v-1.009c1.283-1.061,4.226-3.811,3.028-7.067l-2.019-1.009q0.5-5.048,1.009-10.1c3.887-2.261,3.171-3.068,10.094-3.029,1.15-1.149,0-.4,2.018-1.009v-5.047l2.019-1.01Q382.787,392.378,383.292,389.349ZM678.016,394.4l10.093,3.028q0.5,3.029,1.009,6.057h4.037q0.505,3.028,1.01,6.057l2.018,1.009c1.73,3.087-1.363,1.049,2.019,4.038v1.01l5.047,1.009v1.01c-1.145.852-.147-0.128-1.01,1.009l-3.028,1.01v2.019c2.338,0.883,4.448,1.027,8.075,1.009a6.21,6.21,0,0,1,3.028-3.028v1.009h1.009v5.048l5.047-1.01q0.5,2.524,1.009,5.048h1.01c-0.206,1.7-2.932,1.637-2.019,4.038h1.009a13.9,13.9,0,0,0,4.038,3.028c-2.068,2.544-2.436.416-3.028,5.048l6.056,7.066h1.009v2.019h-1.009l-2.019,3.028H719.4v1.01h-2.019v1.009l-3.028,2.019v2.019h-1.009q-0.5,1.515-1.009,3.029h1.009v1.009h5.047v1.01H719.4V469.1c0.331,0.851,2.6.077,2.019,3.028h-1.01v2.019H719.4l-3.028,9.085h-1.009c-2.046,6.027-.114,12.105,0,18.171-2.555,1.389-3.853,3.211-7.066,4.038-0.915,4.105-2.907,5.1-8.074,5.048-1.91-2.041-.775.07-3.028-1.01v-1.009l-8.075-3.029v1.01c-3.783,1-3.107,2.686-8.074,3.028-1.157-1.956-2.7-2.4-4.038-4.038-2.608.732-3.282,1.573-5.046,3.029v1.009l-3.028,1.01-1.01,2.019H665.9l-1.01,2.019h-1.009l-1.009,3.028c-1.842,1.311-4.951.035-7.066,1.01l-1.009,2.019-5.047,1.009v1.01h-2.018v1.009l-13.121,2.019v-1.01c-7.861-2.143-13.932,2.762-15.14-6.056h-2.019c1.506-5.493,4.772-3.3,5.047-11.1l-3.028-1.009v-2.019h2.018v-2.019h1.01V501.4h-1.01v-4.038h9.084v-1.009H632.6l1.009-2.019a2.612,2.612,0,0,1,3.028,1.009l5.047-1.009c2.477-4.184,6.378-4.853,7.065-11.105,5.651-.385,15.966-5.362,17.159-10.094h1.009v-5.048c-1.408-.709-1.249-1.464-2.019-2.019-2.571-1.853-1.895,1.1-3.028-3.028l10.094-8.076v-2.019l2.018-1.01q0.506-1.514,1.01-3.028c1.491-1.089,7.222-.587,8.074-2.019v-7.066l-3.028-2.019V436.8c-3-1.927-4.642.479-7.065-3.028H671.96v-4.038h-1.01V427.71h-1.009q-0.5-3.029-1.009-6.057h-1.01c-0.843-1.447-.723-1.725-1.009-4.038,2.9,0.075,9.721,2.139,10.093,2.019v-1.01c2.046-1.185,1.831-1.6,5.047-2.019q0.5-4.037,1.009-8.076c-3.539-.533-5.115-0.629-6.056-4.038H676v-4.037h1.009Q677.512,397.426,678.016,394.4ZM791.06,407.52l-3.028,1.009v8.076h-1.009c-0.876,1.571-.818,2.442-1.01,5.048h1.01v1.009c1.917,0.723,5.513.087,6.056-1.009h1.009v2.019c2.041,2.738,3.25,3.872,8.075,4.038,2.764-4.508,7.69-4.841,9.084-11.1a9.43,9.43,0,0,0,8.074-4.038l3.028,1.01c-2.224,6.124,1.639,5.909,2.019,13.123l-10.093,1.01c0.493,4.377,1.435,2.665,2.018,7.066h-2.018c-0.622,1.145-1.716,1.532-2.019,2.019v2.019h-1.009v3.029c-2.151,3.348-4.486-1.019-5.047,7.066,0.545,0.794,1.321-.023,1.009,2.019H806.2v2.019h-1.009c-1.086,3.335.635,6.843,1.009,9.085,1.472,0.761,2.552,2.768,3.028,3.029,3.65,2,3.382-2.618,5.047,3.028h2.018c0.772,3.267,3.563,5.823,2.019,8.076-1.15,1.15,0,.4-2.019,1.01q-1.01,4.036-2.018,8.075l-3.028-1.009v1.009h-4.038v-1.009c-1.993-1.353-2.3-2.257-5.046-3.028q-0.505,1.008-1.01,2.018l-9.084-1.009v1.009L785,484.241,784,481.213h-1.01c-1.807-4.282,1.528-4.612-4.037-6.057v-2.019L773.9,467.08l-3.028-2.019v-2.019l-2.019-1.01v-2.019l-3.028-2.019-6.056-7.066h-2.019v-1.01c-2.663-2.226-3.236-3.733-8.074-4.038-5.251,5.756-8.086-1.989-14.131,0v1.01h-2.019V447.9H730.5v1.01l-4.038,1.009c-1.371-2.459-3.86-3.335-5.046-5.047-1.168-1.685.016-2.314-2.019-4.038,1.211-1.875,2.826-2.163,4.037-4.038-2.147-1.224-2.2-2.274-5.046-3.028,1.031-5.428.055-6.034-1.01-11.105-2.413.468-3.174,1.17-5.046,2.019,0.1-2.637.254-3.459,1.009-5.047h-1.009v-1.01H708.3c-1.555,2.756-2.627,3.042-7.065,3.029v-2.019c2.954-.691,3.3-1.124,4.037-4.038a19.326,19.326,0,0,1-7.065-2.019q-0.5-1.515-1.009-3.029l4.037-1.009,1.009-2.019h7.066l1.009,2.019h5.047v1.009h2.018v1.01l11.1-2.019v1.009c1.063,0.645,1.5,1.679,2.019,2.019h2.018q0.505,1.01,1.009,2.019l11.1-1.009v-1.01c3.133-.459,1.95,2.69,5.047,2.019v-1.009H751.7l1.01-2.019h3.028v-1.01l6.056-2.019V407.52c1.587-.274,1.291,1.748,2.018,2.019h4.038c0.829-2.038,2.287-6.166,4.037-7.067h5.047v-1.009h2.018l1.01-2.019H784v-1.009h2.018c3.359-1.747,1.4-2.7,7.066-3.029,0.953,1.818,1.4,1.589,2.018,4.038h-1.009v3.028l-2.019,1.01Q791.565,405.5,791.06,407.52Zm199.847-8.076h2.018c0.566,5.41.959,4.662-1.009,9.085-1.145-.852-0.147.128-1.009-1.009C989.93,406.224,990.762,403.056,990.907,399.444ZM647.736,482.222c-0.455,5.373-3.071,6.415-6.056,9.085l-1.01,2.019c-3,1.378-5.035-1.683-7.065-1.009l-2.018,3.028c-3.225,1.923-6.526.409-10.094,0-1.1,2.1-1.626,1.788-2.018,5.048h1.009c0.819,1.764-.586,3.238-1.009,4.038h-1.01v3.028c3.023,0.784,2.655.622,3.028,4.038a9.2,9.2,0,0,0-5.046,6.057c-2.878-.313-4.311-0.657-6.056-2.019l-1.01-2.019h-7.065v-1.009c-2.777-.775-12.276,1.244-14.131,2.019v1.009h-2.018v1.01c-5.178,1.788-10.974-2.242-14.131-3.029l-1.009-3.028h-1.009v-2.019h-1.01c-1.413-3.542.613-5.507-2.018-8.076v-1.01h-5.047v-1.009h-3.028v-1.01H556.9v-1.009L546.8,494.336l-1.009-2.019h-2.019v-1.01l-2.019-1.009v-7.067c1.15-1.15.4,0,1.01-2.018l3.028-1.01v-2.019c4.872-.57,2.967-1.9,7.065-3.028q0.5,2.523,1.009,5.047a25.176,25.176,0,0,1,9.084,6.057l2.019,3.028c3.622,2.2,5.132-3.076,7.065,3.029,1.15,1.15.4,0,1.01,2.019h3.028v1.009h1.009v4.038h4.037l2.019,4.038,6.056-1.009q0.5-2.524,1.009-5.048c2.824-.02,10.421-2.854,11.1-4.038v-2.019h1.009V486.26h5.047c1.367-4.853,3.686-3.648,7.065-6.057l2.019-3.028,2.018-1.01v-2.019h1.01v-1.009c2.308-1.956,1.8,1.076,3.028-3.029-1.927-1.268-1.675-1.023-2.019-4.038H622.5a13.4,13.4,0,0,1,3.028-4.038q0.5-11.607,1.009-23.218l-4.037,1.01c-0.235,1.622-1.1,8.09-2.019,9.085V447.9c-1.57-1.513-2.41-6.111-1.009-9.085l2.018-1.009v-2.019c-3.12-1.339-3.887-1.515-4.037-6.057,1.149-1.15.4,0,1.009-2.019h5.047c0.953-1.819,1.4-1.59,2.019-4.038h9.084q1.008-1.515,2.018-3.029c1.669-.607,1.846.974,2.019,1.01,2.7,0.553,4.588-.468,6.056-1.01,1.276,5.324,5.769,4.319,12.112,4.038v-2.019l4.037-1.009c0.83-1.894,1.5-2.641,2.019-5.048,3.548-.923,2.879-2.456,7.065-3.028v1.009h-1.009v1.01h-2.019c-0.952.8-.778,2.048-2.019,3.028l1.01,3.029,2.018,1.009V426.7h1.01v2.019h1.009v3.029h1.009c0.646,1.584.468,2.734,1.01,4.038h1.009V436.8H676v1.01c3.718,1.623,3.745-1.022,5.047,4.038h1.009v3.028a8.136,8.136,0,0,0-2.019,2.019l-6.056,1.009q-3.027,4.543-6.056,9.086c-3.644,3.346-6.669,1.694-7.065,9.085,3.705,1.6,4.181,2.537,4.037,8.076-1.259.669-1.4,1.606-2.018,2.019h-2.019l-1.009,2.019ZM466.057,451.937q-1.01,4.038-2.019,8.076l-2.018,1.01v2.019h-1.01q0.505,1.514,1.01,3.028h1.009c0.315,1.393-.783-0.4-1.009,1.01q0.5,2.523,1.009,5.047a13.446,13.446,0,0,0-5.047,5.048c-1.074-.8-1.609-2.789-2.018-3.029h-4.038a15.866,15.866,0,0,1-6.056-5.047c4.044-2.7.978-3.527,0-7.067,2.789-.73,2.258-0.281,3.028-3.028-2.687-1.559-4.531-4.431-6.056-7.067v-2.019l-4.037-3.028v-2.019H437.8c-1.771-4.343.192-6.968,1.009-10.095q-0.5-6.056-1.009-12.114c1.145-.852.147,0.128,1.009-1.009h8.075v-1.01H448.9v-1.009h3.028v-1.01c3.813-.936,2.928,2.751,6.056,2.019l1.01-2.019,4.037,1.01v1.009l3.028-1.009v-1.01h3.028c-0.377,1.094-1.873,2.839-1.009,5.048l2.018,1.009v3.029h1.01l1.009,3.028H471.1c-0.721,2.422-.926,3.133-3.028,4.038h-2.019l-1.009,2.019h-1.01c-2.517,3.834,1.3,5.728,0,9.085l-2.018,1.01q-0.505,1.514-1.01,3.028h1.01C463.2,451.293,463.861,451.461,466.057,451.937Zm520.812-33.313h2.019q-0.5,5.551-1.009,11.1h-1.01q-0.5,1.514-1.009,3.028c-1.145-.852-0.147.128-1.009-1.009h-1.01V427.71Q985.356,423.168,986.869,418.624ZM979.8,436.8h3.028q-0.5,3.029-1.009,6.057l-2.019,1.009v5.048l-2.019,1.009c-1.165,2.047-.918,4.909-1.009,8.076-3.619-.945-3.186-2.634-3.028-7.066h1.01v-7.067l3.027-1.009C979.246,441.56,979.527,439.345,979.8,436.8Zm-569.26,13.123c2.029,0.579.873-.121,2.019,1.01,4.472-1.179,3.583-3.8,8.074-5.048V447.9c1.04-.556,1.7-1.838,2.019-2.019h2.019v-1.009l6.056,2.019q0.5-1.01,1.009-2.019l5.047-1.01c0.727,3.44,2.238,4.8,4.037,7.067h1.009q0.505,2.523,1.009,5.047h1.01c1.407,1.892,2.272,2.361,3.028,5.048l-3.028,1.009c1.171,4.6,1.91,2.722,1.009,8.076h-3.028q0.505,3.029,1.009,6.057h-6.055a1.488,1.488,0,0,0-2.019-1.009v1.009l-3.028,2.019q-0.505,1.513-1.009,3.029h-7.066v1.009c-2.6.773-4.743,0.137-7.065,1.009v2.019c0.489,0.961,3.894,1.423,3.028,4.038h-1.009v1.01h-3.028l-4.038-6.057-11.1,1.009v-1.009h-3.028v-1.01a8.631,8.631,0,0,0-4.038-2.018q0.505-2.525,1.01-5.048c-1.818-.953-1.589-1.4-4.037-2.019-1.963,3.966-2.118,5.053-8.075,5.048-0.335-2.072-1.009-2.019-1.009-2.019V466.07h-1.01q0.505-1.514,1.01-3.028h-1.01v-5.048h-1.009l-2.019-16.151h2.019v-2.019c2.764,0.65,2.3,1.321,5.047,2.019,3.854-5.312,4.022.856,8.074,0v-1.01H394.4v-1.009h2.018q0.505-1.01,1.01-2.019h7.065c0.7,1.259,2.889,2.765,3.028,3.028v4.038l2.019,1.009Q410.039,447.9,410.544,449.918Zm54.5-12.113h2.018c0.646,2.769,1.92,3.724,3.028,6.056,5.071-.922,7.13-0.123,13.122,0-0.732,3.512-1.874,4.391-2.019,9.086,2.847,1.916,5.053,9.9,5.047,15.142l-4.038,3.029c-0.97,1.563.32,2.98-1.009,4.038h-2.019v1.009H477.16l-1.01,2.019h-2.018l-2.019,3.029h-2.019l-1.009,2.018h-1.009q-0.506,1.515-1.01,3.029c-1.1.815-5.873,2.45-8.074,2.019a2.6,2.6,0,0,0-3.028-1.01v1.01c-1.486.781-1.7,0.727-4.038,1.009a15.842,15.842,0,0,1-1.009-6.057c1.723-1.092,2.144-2.149,3.028-4.037l2.019,1.009v-1.009c3.433-1.307,7.168-4.342,8.074-8.076h1.01l-2.019-9.086h1.009q0.505-1.513,1.01-3.028l2.018-1.01-1.009-3.028h1.009l1.01-3.029c-2.1-1.1-1.788-1.626-5.047-2.019,0.642-2.372.953-2.329,2.019-4.038h1.009Q465.553,441.844,465.048,437.805Zm421.9,25.237q-0.5,2.523-1.009,5.047c1.145,0.852.147-.128,1.009,1.01h3.028l2.019,18.17h-1.01v5.048h-1.009v5.047h-1.009v5.048h-1.01v4.038h-1.009v6.057c-1.613,5.379-2.319,13.059-4.037,18.17v4.038H881.9q-1.008,3.029-2.018,6.057l-3.028,2.019c-4.067,4.579-1.626,7.1-11.1,7.067v-1.01c-3.371-1.69-2.209,3.044-7.065-1.009v2.019l-2.019,1.009v-2.019h-2.018c0.163,9.21-2.41,10.073-5.047,16.152l-3.028-1.009v-5.048c2.35-1.029,3.785-1.9,5.047-4.038h-1.01q-0.5-3.533-1.009-7.066l-2.019-1.01V544.81h-1.009v-2.019h-1.009v-3.028h-1.01v-2.019l-2.018-1.01c-1.449-1.566-2.373-3.709-4.038-5.047,1.97-3.022,1.481-.715,3.028-2.019,1.5-1.267,2.55-4.849,3.028-7.066a54.118,54.118,0,0,0,11.1-1.01q-0.5-3.029-1.009-6.057h1.009v-8.076c0.353-1.383.931,0.416,1.009-1.009,0.142-2.577-3.19-4.536-2.018-7.067l4.037-2.019v-6.057h-1.009c-0.547-3.186,4.945-3.028,8.074-3.028,2.236,2.137,6.552.539,9.084,0,1.725-2.965,2.918-2.89,3.028-8.076h-1.009c-0.919-3.3,4.831-3.247,6.056-5.047q0.5-2.524,1.009-5.048h-1.009V469.1h-6.056q-0.505-1.01-1.009-2.019h-2.019c0.843-3.376,1.225-2.02,3.028-4.038h1.009v-2.019c0.979-2.077,1.23-1.68,4.037-2.019C883.111,461.208,884.124,462.329,886.946,463.042Zm81.756,0a9.836,9.836,0,0,1,4.037,1.009q-0.505,2.019-1.009,4.038h-1.01v7.067h-1.009v1.009H968.7v-6.057h-1.01C966.454,468,968.341,463.947,968.7,463.042ZM539.738,494.336h-2.019c-0.678,1.307-1.573,1.358-2.018,2.019v2.019l-3.028,2.019v3.028h-1.01c1.015,4.893,3.652,6.228,4.038,12.114-3.61,1.946-5.958,4.477-11.1,5.048v-1.01h-6.056v-1.009h-2.019l-1.009-2.019h-5.047v1.009a37.228,37.228,0,0,1-7.065-3.028c-1.149-1.15-.4,0-1.009-2.019h-1.01v-4.038c-6.542-.957-12.358-2.3-15.139-7.067h-1.01q-0.5,1.515-1.009,3.029l-5.047-1.01-1.009,2.019-13.121,3.029v1.009h-2.019v1.01c-1.365.417-.086-0.357-1.009-1.01-1.374-1.176-1.543-1.842-2.019-4.038,3.12-1.338,3.887-1.515,4.037-6.057a10.679,10.679,0,0,1-6.056-9.085c2.227-.366,1.818-0.945,2.019-1.01h5.047l1.009-2.019,3.028-1.009v-2.019l3.028-2.019c0.341,3.457.044,3.205,3.028,4.038v1.009H481.2l1.009,2.019L492.3,490.3c2.509-2.783,4.822-1.462,6.056-6.057h2.019l5.047-6.057,2.018-1.009v-2.019h1.01q0.5-1.515,1.009-3.029l18.168-3.028c2.527,4.163,8.121,5.636,11.1,9.085l2.019-1.009v-1.01c1.337-.5.2,0.471,1.009,1.01l2.019,1.009c-0.895,1.655-3.5,4.486-4.037,6.057v5.047h1.009Q540.243,491.813,539.738,494.336Zm-96.9-23.218,5.047,1.009,2.019,3.029h5.046v3.028h-2.018c-1.33,2.653-4.872,6.539-3.028,9.085,0.73,2.789.281,2.259,3.028,3.029v1.009c1.608,0.232,1.258-1.7,2.018-2.019h2.019c0.1,5.627,1.471,7.192,4.037,10.095l2.019,1.01v3.028H460v1.01h-1.009v3.028c1.6,1.367,1.753,2.19,2.018,5.048-1.145.852-.146-0.128-1.009,1.009l-6.056,1.01v1.009l-7.065-1.009-2.019,3.028c-2.547,1.1-7.224-1.174-8.074-2.019-1.15-1.15-.4,0-1.01-2.019h-1.009v-5.047l-6.056,2.019v-1.01c-1.718-.4-6.4-2.9-7.065-4.038v-3.028h-1.01v-3.029h-1.009c-2.882-3.117-4.287-.268-5.047-6.057,1.15-1.15.4,0,1.01-2.019h4.037a12.8,12.8,0,0,0,1.009-5.047c-0.224-.106-3.66-1.453-3.028-2.019h1.01c2.536-2.2,7.436.417,11.1-1.01v-1.009h2.019l3.028-5.047a1.474,1.474,0,0,1,2.019,1.009c3.442,0.666,5.672-.592,8.074-1.009Z" transform="translate(-27 -33)"/>
</svg>
